<?xml version="1.0" encoding="UTF-8"?>
<svg id="Layer_1" data-name="Layer 1" xmlns="http://www.w3.org/2000/svg" viewBox="0 0 77.34 77.34">
  <defs>
    <style>
      .cls-1 {
        fill: #fff;
      }
    </style>
  </defs>
  <circle class="cls-1" cx="38.67" cy="38.67" r="15.33"/>
  <path class="cls-1" d="M74.42,35.74h-7.05c-.29-2.86-1-5.64-2.12-8.3-1.45-3.43-3.53-6.52-6.18-9.16-2.65-2.65-5.73-4.73-9.16-6.18-2.66-1.12-5.44-1.83-8.3-2.12V2.93c0-1.62-1.31-2.93-2.93-2.93s-2.93,1.31-2.93,2.93v7.05c-2.86.29-5.64,1-8.3,2.12-3.43,1.45-6.52,3.53-9.16,6.18s-4.73,5.73-6.18,9.16c-1.12,2.66-1.83,5.44-2.12,8.3H2.93c-1.62,0-2.93,1.31-2.93,2.93h0c0,1.62,1.31,2.93,2.93,2.93h7.05c.29,2.86,1,5.64,2.12,8.3,1.45,3.43,3.53,6.52,6.18,9.16s5.73,4.73,9.16,6.18c2.66,1.12,5.44,1.83,8.3,2.12v7.05c0,1.62,1.31,2.93,2.93,2.93s2.93-1.31,2.93-2.93v-7.05c2.86-.29,5.64-1,8.3-2.12,3.43-1.45,6.52-3.53,9.16-6.18,2.65-2.65,4.73-5.73,6.18-9.16,1.12-2.66,1.83-5.44,2.12-8.3h7.05c1.62,0,2.93-1.31,2.93-2.93h0c0-1.62-1.31-2.93-2.93-2.93ZM38.67,62.29c-13.04,0-23.61-10.57-23.61-23.61s10.57-23.61,23.61-23.61,23.61,10.57,23.61,23.61-10.57,23.61-23.61,23.61Z"/>
</svg>