<?xml version="1.0" encoding="UTF-8"?>
<svg id="Layer_1" xmlns="http://www.w3.org/2000/svg" viewBox="0 0 168.9 167.9">
  <defs>
    <style>
      .cls-1 {
        fill: #3a1e44;
      }

      .cls-2 {
        fill: #fff;
      }

      .cls-3 {
        fill: #b68dc9;
      }

      .cls-4 {
        fill: #714482;
      }

      .cls-5 {
        fill: #333f49;
      }
    </style>
  </defs>
  <g>
    <path class="cls-2" d="M165.34,57l-15.39-9.12c-1.92-3.08-3.88-5.91-6.88-8.04-.47-.34-.96-.64-1.46-.92.5.28.98.58,1.46.92,1.72-.98,3.64-1.56,5.36-2.55,7.26-4.19,12.64-13.34,7.82-21.4-.41-.69-3.22-4.16-4.1-3.29-.17.16,1,3.64,1.04,4.53.14,2.79-1.16,6.69-3.12,8.7-.49.5-2.74,1.96-3.46,2.38-5.65,3.25-13.26,3.09-19.37,4.88,0,0,0,0,0,0,0,0,0,0,0,0-3.54-.66-6.07-.6-9.6-.26l3.25,3.11c3.07,3.79,3.01,8.97,4.74,13.24.29.72.64,1.4,1.05,2.06-.42-.65-.76-1.34-1.05-2.06-1.74-4.27-1.67-9.45-4.74-13.24l-3.25-3.11c-2.02.2-4.02.43-5.97,1.04h0c-1.1-.05-2.41.33-3.76.25-1.2-.06-2.89-.33-4.02-.77h0c2.97-2.33,6.9-3.66,9.98-6.23,5.57-4.67,8.98-12.52,5.54-19.53-.54-1.1-2.65-4.21-3.97-4.09-1.23.11.26,2.68.38,3.78.44,4.07-1.05,7.85-4.15,10.5-6.63,5.67-20.69,4.78-23.87,14.39-1.42,4.28.05,8.21,3.12,11.29,1.51,1.52,3.01,2.42,4.93,3.37-2.47.56-5.18,2.56-8.04,2.34,1.08,2.09,3.17,3.39,5.19,4.41,5.16,2.6,8.62,2.21,13.75.26,1.11-.42,2.45-.56,3.5-1.55-1.41,2.74-5.76,5.36-8.82,5.7-1.11.12-5.13-.45-5.32-.26-.21.22-.31,5.37-.27,6.11.94,19.19,18.01,27.79,24.88,43.86,2.56,5.99,3.46,12.26,3.15,18.77-.34-4.34-2.83-10.9-4.71-14.88-8.88-18.82-27.88-26.53-27.47-50.37,0-.28-.04-3.86-.26-5.11-.12-.7-.68-.28-.84-.08.03-.04.05-.08.08-.12-3.19,2.03-6.81,7.13-8.6,10.46-6.23,11.59-4.45,25.84,4.3,35.5-.62-.56-1.27-1.09-1.92-1.64-5.66-5.81-12.24-10.38-11.17-18.84.2-1.15,1.07-4.51-.44-3.21-.19.16-.4.38-.61.64-.04.01-.08.01-.12.03-.2.06-.33.21-.46.37-.29.34-.58.67-.88.99-.83.9-1.73,1.73-2.56,2.63-.73.78-1.43,1.59-2.11,2.41-1.32,1.61-2.53,3.32-3.55,5.13-1,1.78-1.82,3.67-2.38,5.64-.58,2.04-.87,4.15-.86,6.26,0,1.15.09,2.3.25,3.43-.23-.57-.69-1.1-.92-1.81-1.72-5.2-.97-9.45,1.31-14.27-13.47,5.35-24.44,14.32-34.11,24.9,1.04-2.27,2.01-4.51,3.37-6.62,4.03-6.23,12.74-13.8,19.72-16.47v-.26c-10.13.77-17.79,5.53-26.99,9.2-2.36.94-6.77,3.02-9.06,3.4-3.65.6-5.09-3.53-2.07-5.71,3.02-2.17,12.67-4.18,16.72-5.59,5.79-2.02,12.25-4.09,13.61-10.9.81-4.03,0-7-2.85-9.86-8.79-8.79-16.89,3-24.73-1.34-1.37-.76-3.05-3.07-3.29-3.07-.64,0-1.06,5.83,3.9,11.79,3.43,4.12,11.04,6.33,15.68,2.99,1.47-1.06,3-5.04,4.81-2.99,2.26,2.57-1.33,4.69-3.2,5.63-6.45,3.22-21.79,5.94-25.73,10.59-4.38,5.17-2.01,12.75,4.79,13.9,3.96.67,7.22-1.18,10.9-2.09-5.85,8.91-9.29,19.39-9.85,30.1-.06,1.18-.13,8.94.26,9.2.37.25.56-.26.73-.43,10.68-10.66,16.35-17.69,31.9-21.8,28.05-7.41,60.34,8.02,57.9,40.13.2.22,1.05-.59,1.3-.78.25-.19.41-.44.52-.52.1-.07.17-.19.26-.26h0c2.81-2.04,9.05-6.48,10.64-9.34.71-.49,1.33-1.11,1.82-1.82.3-.44.58-.9.87-1.36-.28.46-.56.92-.87,1.36.52-.1,1.03-.7,1.39-1.04.68-.66,1.3-1.39,1.95-2.09.37-.4.73-.8,1.08-1.22.96-1.13,1.89-2.3,2.81-3.47,1.08-1.39,2.14-2.8,3.18-4.23,1.01-1.39,2-2.79,2.95-4.23.75-1.13,1.48-2.27,2.11-3.47.11-.21.22-.43.32-.65,5.61-12.21,6.66-24.8,1.59-37.45-1.19,1.95-1.9,4.68-2.52,6.95-1.06,3.9-2.3,8.81-2.93,12.77h-.26c.02-.69-.02-1.39,0-2.08.2-6.01.38-12.57,1.82-18.42-.17.04-.29.03-.37,0,.08.03.2.04.37,0,2.12-8.65,8.34-18.22,17.63-20.11,3.88-.79,4.14.33,7.17.64,3.35.34,5.33-3.62,7.62-5.69.04-.11.05-.21.05-.3,0,.09,0,.19-.05.3.08-.08.52-.03.79-.37.58-.71,2.13-9.89,1.76-10.48ZM24.93,75.89v-.26l.13.13-.13.13ZM162.8,59.42v5.84c-.18.02-.29.03-.37.02.07,0,.19,0,.37-.02v-5.84c0-.07-.06-.26-.15-.5.09.23.15.43.15.5ZM161.06,61.42c.43.13.68.52.83,1-.15-.48-.4-.87-.83-1-.15-.04-.28-.06-.42-.07.14,0,.27.02.42.07ZM162.42,65.28c-.06,0-.09-.02-.11-.04.01.03.05.04.11.04ZM160.21,57.17c-.94-.36-1.89-.7-1.99-.71h0c.11,0,1.05.35,1.99.71ZM157.91,56.73c-.1.25-.12.64-.12,1.02,0,.38.04.73.06.91.04.33.13.7.28,1.06.1.24.22.47.36.67-.14-.21-.26-.44-.36-.67-.14-.35-.24-.72-.28-1.06-.02-.18-.06-.53-.06-.91,0-.38.02-.77.12-1.02ZM119.84,78.89c.66.54,1.31,1.09,1.96,1.65.43.38.86.76,1.28,1.16-.42-.4-.85-.78-1.28-1.16-.65-.56-1.3-1.11-1.96-1.65ZM100.24,46.54c-.28-.02-.56-.03-.84-.04.28,0,.56.02.84.04ZM117.95,43.1c0,.14-.02.27-.03.37.02-.12.02-.24.03-.37ZM117.7,39.16c.02.06.04.14.06.22-.02-.08-.04-.16-.06-.22ZM117.35,37.84c.03.08.06.16.08.25-.03-.08-.05-.17-.08-.25ZM117.88,77.26c-.43-.37-.86-.74-1.29-1.12.42.38.85.75,1.29,1.12ZM126.08,84.98c-.37-.49-.75-.95-1.15-1.39.39.44.78.91,1.15,1.39.37.49.73,1,1.07,1.54-.34-.54-.7-1.05-1.07-1.54ZM137.19,50.17c-.49-.01-.93-.07-1.27-.2-.79-.31-1.34-1.05-1.81-1.86.48.81,1.02,1.55,1.81,1.86.33.13.77.19,1.27.2ZM128.55,43.53c-.08-.11-.17-.26-.25-.43.09.17.17.31.25.43.51.7,3.27,1.99,4.16,2.27-.89-.28-3.64-1.57-4.16-2.27ZM136.44,56.82c-.45-.11-.9-.22-1.35-.34-.45-.12-.9-.24-1.34-.38.44.14.89.26,1.34.38.45.12.9.23,1.35.34.45.11.9.21,1.36.32-.45-.11-.9-.21-1.36-.32ZM140.02,49.94c-.67.09-1.38.18-2.05.22.67-.03,1.38-.12,2.05-.22ZM141.78,49.69c.83.34,1.68.66,2.52.98-.85-.32-1.69-.64-2.52-.98h0ZM151.9,53.58h0c-.24-.1-.48-.19-.72-.29.24.1.48.19.72.29ZM140.11,38.13c-1.02-.49-2.07-.95-3.1-1.45h0s0,0,0,0c1.03.51,2.07.96,3.1,1.45ZM136.41,36.07c-.24.02-.48.03-.7.04-.02,0-.04-.02-.05-.02.25,0,.5,0,.76-.02ZM124.79,35.17c8.61,4.08,17.07,7.83,23.81,14.47.96.95,1.89,1.96,2.78,3.03-.89-1.08-1.82-2.08-2.78-3.03-6.74-6.64-15.2-10.39-23.81-14.47-.08-.03-.15-.04-.21-.03.06,0,.13,0,.21.03ZM124.95,36.35c.11.14.23.29.35.45-.12-.16-.24-.31-.35-.45ZM129.54,54.2c.44.3.91.58,1.43.84-.52-.26-1-.54-1.43-.84-.87-.6-1.58-1.28-2.17-2.01.59.74,1.3,1.41,2.17,2.01ZM117.08,37.24c-.06-.12-.11-.24-.18-.36.07.12.12.24.18.36ZM116.56,36.36c-.08-.1-.14-.21-.23-.31.08.1.15.21.23.31ZM115.83,35.54c-.07-.06-.12-.13-.19-.19.07.06.13.13.19.19ZM113.58,34.23c.11.04.23.07.34.11-.11-.04-.23-.07-.34-.11ZM114.6,34.66c.07.04.16.07.23.11-.07-.04-.15-.07-.23-.11ZM112.9,34.03c-.07-.01-.13-.03-.2-.04.07.01.13.02.2.04ZM107.53,47.72c.55.07,1.12.13,1.69.16-.58-.03-1.14-.09-1.69-.16ZM87.53,83.52c.26.7.55,1.39.86,2.06-.31-.68-.6-1.37-.86-2.06ZM104.33,131.58c.31,1.67.53,3.37.63,5.13-.1-1.77-.32-3.46-.63-5.13ZM107.26,110.6c-.06-.1-.13-.2-.19-.3.07.08.13.17.2.25,0,0-.01,0-.01,0,0,0,0,.03,0,.05ZM118.62,126.17c-.54-3.29-1.73-7.31-3.47-11.45,1.65,3.73,2.85,7.65,3.47,11.45ZM90,57.03c-.25.41-.49.83-.72,1.25.23-.42.47-.83.72-1.25ZM88.89,58.99c-.23.45-.45.9-.66,1.36.21-.46.42-.91.66-1.36ZM87.94,60.98c-.28.66-.55,1.33-.79,2.01.24-.68.5-1.34.79-2.01ZM87.13,63.06c-.22.65-.42,1.31-.6,1.97.18-.66.38-1.32.6-1.97ZM86.36,65.7c-.12.47-.22.94-.32,1.41.09-.47.2-.94.32-1.41ZM85.91,67.88c-.08.45-.14.9-.19,1.35.05-.45.12-.9.19-1.35ZM85.63,70.01c-.04.48-.07.97-.09,1.45.02-.48.05-.97.09-1.45ZM85.51,72.13c-.01.71,0,1.41.03,2.12-.04-.71-.04-1.41-.03-2.12ZM87.29,82.86c-.17-.48-.33-.96-.48-1.44.15.48.31.96.48,1.44ZM86.59,80.64c-.12-.45-.24-.91-.34-1.36.1.46.22.91.34,1.36ZM86.08,78.49c-.1-.48-.17-.96-.25-1.44.07.48.15.96.25,1.44ZM85.73,76.37c-.09-.68-.15-1.36-.19-2.05.04.68.1,1.37.19,2.05ZM22.07,124.92h0c.91-.97,1.86-1.9,2.83-2.79-.98.89-1.92,1.82-2.83,2.79ZM26.4,120.81c1.01-.86,2.04-1.68,3.11-2.48-1.06.79-2.1,1.62-3.11,2.48ZM47.88,105.94c1.57-1.37,3.1-2.77,4.67-4.1-1.57,1.34-3.1,2.74-4.67,4.1ZM121.62,141.67c.02-.07.04-.14.06-.21-.02.06-.03.11-.05.17,0,.02,0,.03-.01.05ZM123.41,134.38c.02-.12.04-.24.06-.35,0,.04-.01.09-.02.13-.01.07-.03.15-.04.22ZM122.1,139.98c.02-.09.05-.17.07-.26-.02.09-.05.17-.07.26ZM122.6,138.11c.03-.12.06-.25.09-.37-.03.12-.06.25-.09.37ZM123.08,136.07s.01-.06.02-.09c0,.03-.01.06-.02.09ZM123.75,132.06c-.01.1-.02.2-.03.3.01-.1.02-.2.03-.3ZM123.89,130.53c0-.09.01-.17.02-.25,0,.02,0,.05,0,.07,0,.06-.01.12-.02.19ZM123.96,128.58c0-.11,0-.22,0-.33,0,.05,0,.1,0,.15,0,.06,0,.12,0,.18ZM141.11,58.01c-.86-.27-1.74-.49-2.64-.71.9.21,1.78.44,2.64.71.86.27,1.69.57,2.47.95-.78-.38-1.61-.68-2.47-.95ZM145.26,59.93c-.35-.25-.72-.48-1.1-.68.38.21.75.43,1.1.68.71.5,1.36,1.09,1.93,1.81-.58-.72-1.23-1.31-1.93-1.81ZM149.45,66.8c-.33-1.55-.83-2.83-1.45-3.89.62,1.06,1.12,2.34,1.45,3.89.04.21.07.41.08.6-.01-.19-.04-.39-.08-.6ZM150.59,69.4c.11,0,.23-.01.36-.03-.13.02-.25.03-.36.03Z"/>
    <path class="cls-2" d="M102.35,167.9c-1.27,0-2.13-.72-2.56-1.18-.66-.71-.99-1.67-.92-2.64,1.12-14.72-5.68-23.67-11.59-28.58-10.52-8.75-26.98-11.86-41.93-7.9-13.06,3.45-18.4,8.85-27.23,17.78-.94.95-1.91,1.94-2.93,2.95-1.52,2.01-3.81,2.04-5.32,1.02-1.05-.7-2.36-1.58-1.8-12.29.44-8.47,2.56-16.74,6.18-24.32-1.35.18-2.78.21-4.32-.05-4.33-.73-7.77-3.52-9.21-7.47-1.5-4.1-.63-8.64,2.34-12.14,2.72-3.21,8.35-5.27,14.63-7.26-2.46-1.03-4.65-2.58-6.21-4.46-5.13-6.17-5.76-12.81-4.56-15.34.64-1.35,1.92-2.19,3.35-2.19h.01c1.64,0,2.51.97,3.36,1.91.34.37,1.24,1.37,1.62,1.6,1.95,1.08,4.16.43,7.59-.73,4.81-1.62,11.4-3.84,17.9,2.65,3.65,3.64,4.86,7.78,3.81,13.02-.56,2.78-1.73,4.94-3.27,6.66,2.33-.6,4.77-1.04,7.35-1.23.97-.08,1.93.26,2.65.92.26.24.47.51.65.81,2.21-1.13,4.44-2.14,6.71-3.04.76-.3,1.57-.32,2.31-.1.72-1.08,1.53-2.16,2.43-3.26.69-.85,1.45-1.71,2.25-2.58.44-.48.9-.93,1.36-1.39.41-.41.81-.81,1.21-1.24.27-.29.53-.59.79-.89.17-.19.53-.63,1.13-1,.17-.17.33-.32.5-.46,2.12-1.82,4.11-.91,4.66-.58.05.03.09.06.14.08.63-3.53,1.82-7,3.57-10.27,1.47-2.75,4.72-7.72,8.33-10.68-1.01-.88-1.92-1.95-2.6-3.26-.58-1.13-.51-2.49.19-3.55.7-1.06,1.94-1.66,3.19-1.55.04,0,.08,0,.12,0-4.11-4.28-5.44-9.46-3.73-14.62,2.5-7.54,9.69-9.89,16.05-11.96,3.51-1.15,6.82-2.23,8.88-3.99,2.19-1.87,3.24-4.49,2.95-7.37-.05-.2-.14-.43-.22-.66-.51-1.44-1.21-3.42-.02-5.27.66-1.03,1.76-1.69,3.02-1.8,4.23-.37,7.3,5.77,7.43,6.03,4.31,8.78.15,17.97-6,23.38.25-.03.49-.05.74-.07,0,0,0,0,0,0,3.45-.34,6.22-.42,9.76.16,2.24-.6,4.59-.97,6.88-1.34,4.08-.65,7.93-1.27,10.93-2.99.66-.38,2.31-1.48,2.75-1.84,1.17-1.24,2.15-4.03,2.09-5.94-.06-.35-.32-1.27-.47-1.84-.63-2.27-1.08-3.92.46-5.44.87-.87,2.11-1.27,3.35-1.12,3.28.41,6.19,5.05,6.22,5.1,2.3,3.85,2.92,8.2,1.78,12.58-1.41,5.44-5.47,10.54-10.86,13.65-.32.18-.63.35-.95.51,1.25,1.47,2.29,3.01,3.22,4.47l14.66,8.69c.48.28.88.68,1.18,1.15.65,1.03.94,1.84-.04,7.64-.95,5.66-1.52,6.35-1.97,6.91-.44.54-.99.96-1.64,1.23-.34.36-.69.78-1.07,1.22-1.8,2.12-4.53,5.31-8.78,4.89-1.39-.14-2.37-.42-3.08-.63-.97-.28-1.38-.4-3.04-.06-6.55,1.34-11.38,7.54-13.84,14.01,1.19.21,2.19,1.01,2.64,2.14,5.2,12.96,4.64,26.49-1.66,40.21-.12.27-.26.54-.4.81-.74,1.4-1.57,2.68-2.3,3.78-.88,1.32-1.87,2.75-3.04,4.35-1.07,1.46-2.16,2.92-3.25,4.32-1.13,1.45-2.03,2.56-2.9,3.59-.38.45-.77.9-1.18,1.33-.2.21-.39.43-.59.65-.46.51-.94,1.04-1.48,1.57l-.13.13c-.31.32-.79.8-1.43,1.2-.44.52-.93,1-1.46,1.43-2.04,3-6.62,6.44-10.81,9.48l-.14.1s-.1.1-.16.15c-.18.2-.46.5-.83.78l-.04.04c-1.32,1.12-2.45,1.49-3.37,1.49ZM58.68,118.86c12.37,0,24.27,3.92,33.08,11.26,8.33,6.93,13.2,16.45,14.08,27.28,2.48-1.88,5.41-4.29,6.17-5.65.26-.47.63-.87,1.07-1.18.36-.25.68-.56.93-.93,0,0,0,0,0,0h0c.23-.34.45-.69.67-1.05l.1-.15c.51-.83,1.32-1.38,2.21-1.58,0,0,0-.01.02-.02.22-.24.44-.49.66-.73.33-.36.66-.73.97-1.1.21-.25.42-.5.64-.76-.96-.87-1.4-2.23-1.01-3.56l.07-.25c.07-.24.16-.46.28-.67.01-.25.05-.5.12-.75,0,0,.03-.1.03-.1l.04-.13c.07-.27.18-.53.31-.77,0-.26.04-.53.11-.79l.09-.34c.07-.28.17-.54.29-.78,0-.02,0-.04,0-.05,0-.24.02-.48.08-.73.06-.28.14-.55.26-.8-.01-.26,0-.52.05-.79l.05-.3c.04-.26.12-.52.21-.75-.02-.25-.02-.51.01-.77l.03-.27c.03-.23.08-.46.15-.67-.03-.23-.04-.46-.02-.7v-.03s0-.01,0-.02v-.11s0,0,0,0c0-.05,0-.09,0-.15.02-.22.06-.44.12-.64-.02-.07-.03-.14-.04-.22-.39.25-.84.43-1.32.5-1.91.31-3.71-.98-4.02-2.89-.51-3.13-1.66-6.91-3.24-10.65-.75-1.77.07-3.81,1.84-4.58.43-.19.88-.28,1.32-.29-3.04-5.71-7.14-10.48-11.12-15.11-6.21-7.21-12.58-14.62-14.87-25.42-.02.31-.04.61-.05.92,0,.12-.02.23-.03.34,0,.08,0,.16,0,.24h0c-.01.65,0,1.25.02,1.82,0,.04,0,.07,0,.11.03.57.09,1.16.17,1.81,0,.08.02.17.02.25.03.11.05.23.07.35,0,0,0,0,0,0h0s0,.01,0,.02c.06.42.13.83.21,1.25.02.11.04.23.05.34.04.12.07.23.1.36,0,0,0,0,0,0h0s0,0,0,.01c.05.22.1.45.16.67.04.17.09.35.14.52.03.12.06.25.08.37.04.1.08.21.11.32,0,0,0,0,0,0h0s0,.02,0,.03c.03.08.05.17.08.25.11.33.22.67.34,1,.04.11.07.23.1.34.04.08.07.16.1.25h0s0,0,0,.01c.2.53.4,1.02.6,1.47.05.12.11.24.16.36.81,1.76.04,3.83-1.72,4.64-1.76.81-3.83.04-4.64-1.72-.08-.18-.17-.36-.25-.55-.24-.54-.47-1.12-.71-1.73-.05-.14-.1-.28-.13-.42-.05-.1-.09-.21-.13-.31-.16-.44-.31-.88-.45-1.32-.02-.07-.05-.15-.07-.22l-.02-.06s0,0,0,0c-.04-.15-.08-.3-.1-.45-.05-.13-.1-.26-.14-.4-.06-.23-.12-.45-.18-.68-.07-.28-.14-.56-.2-.84,0,0,0,0,0,0,0,0,0,0,0,0-.03-.14-.05-.28-.07-.42-.05-.14-.09-.29-.12-.44,0,0,0,0,0,0h0s0,0,0-.01c-.11-.53-.19-1.07-.27-1.6-.02-.11-.03-.22-.03-.33-.04-.14-.06-.28-.08-.43,0,0,0,0,0,0h0s0-.02,0-.04v-.12c-1.34,8.12,1.01,16.6,6.72,22.89,1.25,1.38,1.2,3.5-.11,4.82-1.31,1.32-3.43,1.38-4.82.14-.43-.39-.87-.76-1.32-1.13l-.53-.44c-.09-.07-.17-.15-.25-.23-.87-.9-1.77-1.76-2.66-2.62-3.92-3.79-8.25-7.98-9.36-13.92-.4.45-.78.89-1.13,1.33-1.3,1.59-2.35,3.1-3.21,4.63-.91,1.62-1.6,3.26-2.06,4.88-.49,1.72-.73,3.51-.73,5.3,0,.96.07,1.95.21,2.95.25,1.75-.85,3.41-2.55,3.87-1.71.46-3.49-.42-4.15-2.06-.04-.07-.1-.17-.16-.27-.25-.42-.59-1-.84-1.75-.08-.26-.16-.51-.24-.76-.08.08-.17.16-.25.24-.92.79-1.84,1.6-2.76,2.42-.62.56-1.25,1.11-1.88,1.66-1.45,1.27-3.67,1.12-4.94-.33-.58-.66-.86-1.48-.86-2.3,0-.98.41-1.94,1.2-2.64.62-.54,1.23-1.08,1.83-1.62.95-.85,1.9-1.69,2.86-2.51,1.12-.96,2.68-1.08,3.91-.43-.02-.88.03-1.76.14-2.64-8.29,4.38-16.22,10.59-24.06,18.83.79.18,1.52.62,2.04,1.32.47.63.7,1.36.7,2.09,0,1.07-.48,2.12-1.4,2.81-1.03.77-2.01,1.55-2.93,2.34-.25.21-.51.38-.79.51-.16.26-.37.5-.6.72-.93.85-1.82,1.73-2.64,2.6-1.32,1.41-3.54,1.48-4.95.16-.74-.69-1.11-1.62-1.11-2.56,0-.86.31-1.72.95-2.39.94-1,1.96-2.01,3.03-2.98.27-.25.57-.44.89-.59.19-.29.42-.57.7-.8.14-.12.28-.23.42-.35-.22-.09-.44-.2-.64-.33-1.44-.95-1.97-2.81-1.25-4.37l.33-.73c.95-2.09,1.93-4.24,3.28-6.34,1.2-1.86,2.72-3.76,4.44-5.61l-.43.19c-2.25,1.01-4.59,2.06-7.03,3.04-.18.07-.37.15-.56.23.63.24,1.2.67,1.61,1.25.83,1.18.86,2.74.07,3.95-5.54,8.43-8.75,18.24-9.28,28.36-.01.24-.02.64-.03,1.12,8.08-8.12,14.68-14.06,28.53-17.72,5-1.32,10.1-1.97,15.12-1.97ZM15.04,148.48h-.01s0,0,.01,0ZM126.96,133.69c0,.08.01.16.01.25.11-.17.23-.34.34-.51.63-.95,1.35-2.06,1.94-3.17.08-.15.16-.31.24-.48,3.61-7.86,5.06-15.61,4.35-23.17-.72,2.94-1.24,5.43-1.56,7.44-.27,1.7-1.74,2.95-3.46,2.95h-.26c-.59,0-1.16-.15-1.67-.42.5,3.2.66,6.54.49,10.06,0,.2-.04.4-.08.59.09.28.14.58.15.89,0,.03,0,.13.01.22,0,.08,0,.24,0,.32v.02c0,.31-.04.6-.12.89.06.27.08.56.07.85,0,.03,0,.06,0,.08,0,.16-.02.25-.03.33-.02.28-.08.54-.16.8.02.15.03.29.03.45,0,.13,0,.27-.02.41l-.04.34c-.04.31-.12.61-.23.89ZM99.38,61.43c-.03,1-.04,1.94-.02,2.24.51,10.4,6.44,17.51,12.71,25.04,4.4,5.29,8.96,10.76,11.89,17.61.43,1,.82,2.02,1.17,3.05.17-4.99.43-10.44,1.47-15.53-.07-.27-.1-.55-.1-.83,0-.42.08-.85.24-1.27.15-.4.37-.75.63-1.05.07-.24.14-.47.22-.71-1.29.17-2.64-.41-3.39-1.59-.28-.44-.58-.88-.9-1.3-.3-.4-.63-.8-.98-1.19-.27-.3-.48-.64-.62-1-.36-.16-.7-.38-1-.66-.39-.37-.78-.72-1.18-1.06-.62-.54-1.26-1.07-1.89-1.59-.35-.29-.63-.63-.84-1.01-.41-.14-.81-.35-1.16-.65-.46-.39-.92-.78-1.37-1.19-.77-.69-1.16-1.64-1.16-2.6,0-.83.3-1.67.9-2.34,1.29-1.44,3.5-1.55,4.94-.26.4.36.8.71,1.21,1.05.34.28.6.62.8.98.4.13.78.34,1.13.62.68.56,1.36,1.13,2.03,1.71.47.41.93.82,1.38,1.25.38.35.66.77.84,1.22.45.2.87.49,1.22.88.46.52.91,1.06,1.32,1.6.36.47.7.95,1.03,1.45,3.33-6.65,8.93-12.88,16.91-14.72-.43-.54-.71-1.21-.75-1.95-.25-1.21-.6-2.17-1.05-2.94-.08-.14-.15-.27-.21-.42-.11-.1-.21-.22-.31-.34-.35-.43-.75-.8-1.22-1.14-.22-.15-.45-.3-.7-.44h0s0,0,0,0c0,0,0,0,0,0-.01,0-.03-.01-.04-.02-.07-.04-.14-.08-.2-.12-.07-.03-.15-.06-.22-.1-.56-.27-1.21-.52-1.99-.76h0c-.77-.24-1.56-.44-2.26-.61-.01,0-.02,0-.03,0,0,0,0,0,0,0-.04,0-.08-.02-.12-.03-.11-.03-.22-.06-.33-.1-.11-.02-.22-.04-.33-.06l-1.37-.32c-.48-.11-.95-.23-1.43-.36-.49-.13-.99-.27-1.48-.42-.59-.18-1.1-.51-1.5-.92-.61.04-1.22-.07-1.8-.36-.65-.32-1.28-.69-1.86-1.09,0,0,0,0,0,0-1.09-.75-2.06-1.64-2.88-2.65-.02-.02-.03-.04-.05-.06-.17-.21-.31-.43-.42-.67-.17-.17-.33-.37-.47-.59-.51-.8-.96-1.68-1.34-2.62-.7-1.72-1.12-3.47-1.52-5.17-.71,1.13-2.03,1.79-3.44,1.6-1.91-.26-3.25-2.02-2.99-3.94v-.09s0,0,0,0v-.09c.05-.52.2-1,.44-1.43-.24-.34-.42-.73-.53-1.15l-.03-.12c-.05-.2-.08-.4-.1-.59-.05-.12-.1-.25-.15-.38l-.05-.17s0-.03-.01-.04c-.03-.06-.06-.12-.09-.18h0s-.03-.08-.05-.1h0s-.04-.08-.05-.11c-.02-.03-.04-.06-.07-.09,0,0,0,0,0,0,0,0,0,0,0,0,0,0,0,0,0,0,0,0,0,0,0,0,0,0,0,0,0,0,0,0,0,0,0,0t0,0s0,0,0,0c0,0,0,0,0,0,0,0,0,0,0,0,0,0,0,0,0,0,0,0,0,0,0,0,0,0,0,0,0,0l-.12-.17h0s0,0,0,0h0s.01.01.03.03c0,0,.01.02.02.03-.02-.02-.04-.04-.05-.07-.05-.04-.09-.08-.14-.12-.07-.06-.14-.13-.2-.2,0,0-.01-.01-.02-.02h-.02c-.09-.06-.18-.1-.26-.14-.06-.03-.12-.07-.18-.1-.01,0-.02,0-.04-.01l-.24-.08c-.07-.02-.14-.05-.21-.08-.03,0-.07-.01-.1-.02-.01,0-.11-.02-.11-.02-.1-.02-.2-.04-.3-.07-.08,0-.17,0-.25,0-.21-.01-.67.05-1.07.1-.75.09-1.67.21-2.7.16-1.41-.07-3.49-.38-5.1-1-1.17-.46-2.01-1.5-2.2-2.75s.31-2.49,1.3-3.27c1.63-1.27,3.41-2.24,5.13-3.17,1.75-.95,3.4-1.85,4.76-2.99,2.12-1.77,3.94-4.17,4.92-6.81-.73,1.02-1.6,1.97-2.6,2.82-3.11,2.66-7.25,4.01-11.25,5.32-6.34,2.07-10.28,3.61-11.57,7.51-.89,2.7-.13,5.3,2.28,7.73,1.16,1.17,2.32,1.87,3.92,2.66.6-.44,1.36-.68,2.14-.67.34,0,.67.02,1,.05,1.84.13,3.25,1.67,3.25,3.49,0,.08,0,.17,0,.25-.14,1.93-1.81,3.38-3.74,3.24-.22-.02-.44-.03-.67-.03-.5-.01-.97-.13-1.39-.32-.38.27-.81.48-1.29.58-.41.09-.91.28-1.44.5,3.79,1.76,6.23,1.38,10.31-.17-.91-.64-1.48-1.7-1.48-2.85,0-.16,0-.31.03-.47.26-1.92,2.03-3.26,3.94-3,.46.06.94.11,1.42.14,1.86.1,3.31,1.65,3.3,3.49,0,.06,0,.13,0,.2-.03.5-.16.97-.37,1.39.01,0,.02.02.03.02,1.36,1.02,1.79,2.88,1.01,4.4-2.05,4-7.63,7.15-11.55,7.58-.62.07-1.39.04-2.45-.04ZM15.3,74.7c.42.71.94,1.44,1.56,2.19,2.35,2.83,7.98,4.52,10.95,2.39.07-.07.41-.52.64-.82,1.06-1.4,2.51-3.31,4.99-3.4.82-.03,2.43.16,3.84,1.76.18.21.35.42.51.64-.27-1.16-.91-2.17-1.98-3.24-2.86-2.86-5.25-2.7-9-1.53.21.13.41.29.59.47l.13.13c.66.66,1.03,1.55,1.03,2.48,0,.93-.37,1.82-1.03,2.48l-.13.13c-1,1-2.5,1.3-3.81.75-1.31-.54-2.16-1.82-2.16-3.23v-.26c0-.47.09-.92.26-1.34-2.01.52-4.17.81-6.39.41ZM154.39,69.86c.34.08.69.15,1.13.2.62.08,1.89-1.45,2.74-2.46.27-.32.55-.65.84-.97-.2-.45-.29-.93-.29-1.4,0-.28.04-.57.1-.84-.26-.15-.49-.32-.71-.53-1.02-.08-1.99-.6-2.61-1.51-.27-.4-.51-.85-.7-1.32-.26-.63-.43-1.31-.51-1.97,0-.01,0-.03,0-.05-.03-.23-.07-.68-.08-1.19,0-.01,0-.03,0-.04,0-.06,0-.12,0-.18,0-.64.06-1.19.2-1.69-.97,1.07-2.55,1.46-3.96.87l-.68-.27c-1.19-.49-1.97-1.56-2.14-2.76-.25-.27-.5-.55-.76-.82-.93,1.08-2.47,1.52-3.88.99-.62-.23-1.24-.47-1.86-.71-.22.08-.46.14-.71.18-.63.09-1.45.19-2.26.24l.35.08c.12.03.23.06.34.1.12.02.23.04.35.07.84.2,1.84.45,2.86.77.05.01.1.03.14.04,1.02.32,1.92.67,2.75,1.06l.06.03c.13.06.25.13.36.2.13.05.25.11.38.18.51.28.99.58,1.45.9.95.67,1.8,1.45,2.52,2.33.01.02.03.04.04.05.03.03.05.07.08.1.21.26.37.54.5.83.23.22.43.47.6.76.83,1.42,1.46,3.08,1.86,4.93h0c.03.16.06.31.08.47.77.55,1.31,1.4,1.44,2.4.02.15.03.3.03.45,0,.16-.01.32-.03.48ZM132.5,51.89h.03c.06.04.13.08.19.11-.71-.67-1.22-1.44-1.62-2.12-.21-.35-.35-.73-.42-1.11-.48-.2-1.1-.47-1.74-.8.21.51.45.97.72,1.4.07.12.14.23.2.35.08.09.17.18.24.27.01.02.03.03.04.05.39.48.84.89,1.37,1.25,0,0,.01,0,.02.01.29.2.6.38.93.55,0,0,0,0,0,0h.03s.01.02.02.02ZM137.34,46.68c.06,0,.12,0,.18.01.09-.01.17-.02.26-.02.41-.02.87-.07,1.28-.13-.99-.64-2.01-1.26-3.05-1.85.06.19.11.38.14.58.38.28.72.64.97,1.07h0s0,0,0,.01c.08.14.15.25.2.33ZM114.54,40.06l-.2.04c.01.06.03.11.04.15l.24-.08s-.05-.07-.08-.11ZM113.35,37.99s.02.01.03.02c0,0-.02-.01-.03-.02ZM142.43,35.51c.29.07.57.17.84.32.36-.16.72-.32,1.08-.47.85-.36,1.65-.71,2.34-1.1,2.83-1.63,5.17-4.07,6.56-6.73-.21.26-.43.51-.66.75-1.04,1.06-4.19,2.95-4.22,2.97-2.63,1.51-5.49,2.36-8.39,2.97.07.03.13.06.2.09.49.22.97.45,1.45.68.3.14.56.32.8.53ZM104.96,140.21c-1.84,0-3.39-1.44-3.49-3.3-.08-1.51-.27-3.04-.58-4.7-.04-.21-.06-.43-.06-.64,0-1.66,1.18-3.13,2.87-3.44,1.91-.34,3.73.91,4.08,2.81.36,1.94.58,3.76.68,5.57,0,.07,0,.14,0,.2,0,1.84-1.44,3.38-3.3,3.49-.07,0-.13,0-.2,0ZM107.26,114.1c-1.16,0-2.28-.58-2.94-1.6l-.2-.3c-1.01-1.57-.61-3.66.91-4.74,1.52-1.09,3.62-.79,4.78.68l.17.22c.54.67.81,1.51.77,2.34-.04,1.4-.92,2.67-2.26,3.17-.4.15-.82.23-1.23.23Z"/>
  </g>
  <g>
    <path class="cls-3" d="M123.89,126.48c.52,6.62-1.56,12.73-3.37,18.94l-1.04,1.82c-.09.17-.17.35-.26.52-.72,1.33-1.48,2.65-2.33,3.89-.49.71-1.11,1.33-1.82,1.82,4.17-7.53,4.91-18.93,3.55-27.28-1.28-7.82-5.02-16.18-10.03-22.26-.07.85,1.02,3.62.97,4.49-.09,1.42-1.96,1.59-2.01,2.52-1.75-2.12-3.21-4.46-4.94-6.61-4.94-6.16-10.84-11.36-14.22-18.72-.34-.73-.64-1.47-.93-2.22s-.53-1.5-.75-2.26-.41-1.51-.57-2.27-.29-1.52-.39-2.28-.17-1.52-.21-2.29-.05-1.52-.03-2.29.07-1.52.15-2.28.19-1.51.32-2.26.3-1.5.5-2.24c.2-.74.42-1.48.68-2.21s.54-1.46.85-2.17.66-1.43,1.03-2.13.78-1.4,1.2-2.08c.11-.18.23-.35.34-.53.11-.17.75-.72.88.04.22,1.25.26,4.83.26,5.11-.41,23.84,18.58,31.55,27.47,50.37,1.88,3.98,4.36,10.54,4.71,14.88Z"/>
    <path class="cls-3" d="M59.56,105.72c3.57,8.77,9.8,12.35,18.59,15.01.42.13.73-.2.6.55-11.36-.96-26.38-5.57-26.2-19.45-3.13,2.67-6.14,5.61-9.51,7.99-2.75,1.95-5.8,3.33-8.62,5.13-4.48,2.85-8.7,6.08-12.34,9.96.62-3.63,2.25-7.05,3.76-10.37,9.67-10.58,20.65-19.54,34.11-24.9-2.28,4.82-3.03,9.07-1.31,14.27.23.7.69,1.24.92,1.81Z"/>
    <path class="cls-1" d="M115.07,153.45c-1.59,2.86-7.83,7.3-10.64,9.34,1.32-2.2,2.81-4.22,3.99-6.52,6.21-12.15,7.64-26.06,2.36-38.87-.46-1.12-3.55-6.32-3.52-6.85,0,0,1.62-.35,1.05-3.55-.57-3.2-3.47-7.52-3.39-8.37,7.51,7.73,12.43,19.71,13.71,27.53,1.37,8.36.62,19.76-3.55,27.28Z"/>
    <path class="cls-3" d="M103.91,33.35c-1.66,1.3-3.44,3.79-2.59,5.97.21,2.77,2.31,5.03,4.41,6.62-6.86.34-12.93-6.38-9.18-13.07.6-1.07,1.77-1.74,2.17-2.88,4.79-2.89,13.4-5.51,12.97-12.19,3.1-2.65,4.59-6.43,4.15-10.5-.12-1.1-1.61-3.67-.38-3.78,1.32-.12,3.43,2.99,3.97,4.09,3.44,7.01.04,14.86-5.54,19.53-3.07,2.58-7.01,3.91-9.98,6.23Z"/>
    <path class="cls-3" d="M128.55,111.43l-.78.52c-.59-8.18-2.9-16.39-7.57-23.17-3.25-4.73-10.07-11.16-10.07-17.42v-4.02c.64.68.88,1.86,1.34,2.68,5.06,8.91,14.66,10.28,18.25,22.23.13.42-.05.92.64.77-1.44,5.84-1.61,12.4-1.82,18.42Z"/>
    <path class="cls-4" d="M98.72,29.98c-.11.06-.56,0-.92.24-4.38,2.79-7.5,7.94-6.86,13.25-3.07-3.09-4.54-7.01-3.12-11.29,3.18-9.6,17.25-8.72,23.87-14.39.43,6.69-8.18,9.3-12.97,12.19Z"/>
    <path class="cls-3" d="M143.08,39.84c-1.89-1.35-4.01-2.14-6.07-3.16-.37-.18-2.19.03-2.06-.58,4.92.31,15.82-4.18,15.13-10.27,1.96-2.01,3.26-5.91,3.12-8.7-.04-.89-1.21-4.36-1.04-4.53.88-.87,3.69,2.6,4.1,3.29,4.82,8.06-.56,17.2-7.82,21.4-1.72.99-3.64,1.57-5.36,2.55Z"/>
    <path class="cls-1" d="M98.72,29.98c-.4,1.14-1.57,1.81-2.17,2.88-3.75,6.69,2.32,13.41,9.18,13.07-2.1-1.58-4.2-3.85-4.41-6.62,1.8,4.63,12.54,5.46,16.6,4.15-.12.89-1.09,3.58-1.96,3.88-1.22.42-5.35.62-6.74.54-4.6-.26-8.39-2.17-13.35-1.05-1.92-.95-3.42-1.86-4.93-3.37-.63-5.32,2.48-10.46,6.86-13.25.36-.23.81-.17.92-.24Z"/>
    <path class="cls-4" d="M150.08,25.83c.69,6.09-8.45,10.41-14.72,10.26-2.09-.05-5.31-2.48-8.1-2.99,6.11-1.8,13.72-1.63,19.37-4.88.72-.41,2.97-1.87,3.46-2.38Z"/>
    <path class="cls-3" d="M38.28,71.74c2.86,2.85,3.66,5.82,2.85,9.86l-1.71-3.61c-3.43-4.37-9.34-3.04-14.11-2.36,2.07-1.7,6-3.63,8.69-3.88,1.47-.14,2.93.38,4.28,0Z"/>
    <path class="cls-3" d="M93.02,53.58c-.11-.69,1.52-1.06,2.02-1.22,4.95-1.58,6.38-.53,10.95.84.42.13.92-.05.77.64-5.13,1.95-8.59,2.34-13.75-.26Z"/>
    <path class="cls-5" d="M128.81,113.51c-.06.37.18,1.01-.39.78-.44-.18.13-.73.13-.78h.26Z"/>
    <path class="cls-1" d="M110.78,117.41c-.46-1.12-1.71-5-7.85-12.89-4.85-6.23-11.16-11.57-14.54-18.93-4.54-9.87-3.69-20.63,2.3-29.66-3.19,2.03-6.81,7.13-8.6,10.46-6.33,11.78-4.41,26.31,4.71,35.97.04.04-.04.22,0,.26l.52.52c7.22,7.3,12.4,12.34,15.56,22.57,1.13,3.66,1.87,7.17,2.09,11.01l-.27,4.03c-1.85-9.72-9.02-17.87-16.78-23.55-4.94-3.61-9.9-5.79-13.96-10.68-4.11-4.95-6.15-12.36-4.8-18.68-.02-.17.01-.35,0-.52-.02-.28-.05-.65.26-.78-.01-.25-.02-.53,0-.78.05-.63.43-.97.52-1.3.15-.6.33-1.22.52-1.82,0-.01-.07-.01,0-.26.15-.51.36-.86.52-1.3,0,0,.26,0,.26,0,.21-.4.41-.8.63-1.19.2-.37.46-.74.65-1.12-.12.02-.26.05-.38.08-.2.06-.33.21-.46.37-.29.34-.58.67-.88.99-.83.9-1.73,1.73-2.56,2.63-.73.78-1.43,1.59-2.11,2.41-1.32,1.61-2.53,3.32-3.55,5.13-1,1.78-1.82,3.67-2.38,5.64-.58,2.04-.87,4.15-.86,6.26,0,1.15.09,2.3.25,3.43,3.57,8.77,9.8,12.35,18.59,15.01.42.13.73-.2.6.55-11.36-.96-26.38-5.57-26.2-19.45-3.13,2.67-6.14,5.61-9.51,7.99-2.75,1.95-5.8,3.33-8.62,5.13-4.48,2.85-8.7,6.08-12.34,9.96.62-3.63,2.25-7.05,3.76-10.37,1.04-2.27,2.01-4.51,3.37-6.62,4.03-6.23,12.74-13.8,19.72-16.47v-.26c-10.13.77-17.79,5.53-26.99,9.2-2.36.94-6.77,3.02-9.06,3.4-3.65.6-5.09-3.53-2.07-5.71,3.02-2.17,12.67-4.18,16.72-5.59,5.79-2.02,12.25-4.09,13.61-10.9l-1.71-3.61c-3.43-4.37-9.34-3.04-14.11-2.36,2.07-1.7,6-3.63,8.69-3.88,1.47-.14,2.93.38,4.28,0-8.79-8.79-16.89,3-24.73-1.34-1.37-.76-3.05-3.07-3.29-3.07-.64,0-1.06,5.83,3.9,11.79,3.43,4.12,11.04,6.33,15.68,2.99,1.47-1.06,3-5.04,4.81-2.99,2.26,2.57-1.33,4.69-3.2,5.63-6.45,3.22-21.79,5.94-25.73,10.59-4.38,5.17-2.01,12.75,4.79,13.9,3.96.67,7.22-1.18,10.9-2.09-5.85,8.91-9.29,19.39-9.85,30.1-.06,1.18-.13,8.94.26,9.2.37.25.56-.26.73-.43,10.68-10.66,16.35-17.69,31.9-21.8,28.05-7.41,60.34,8.02,57.9,40.13.2.22,1.05-.59,1.3-.78.25-.19.41-.44.52-.52.1-.07.17-.19.26-.26,1.32-2.2,2.81-4.22,3.99-6.52,6.21-12.15,7.64-26.06,2.36-38.87ZM24.93,75.89v-.26l.13.13-.13.13Z"/>
    <path class="cls-1" d="M69.15,87.82c1.69,17.45,17.75,20.1,28.15,31.12,2.13,2.25,3.42,4.66,5.24,6.96.6.76.26.06.33-.21,1.13,3.66,1.87,7.17,2.09,11.01l-.27,4.03c-1.85-9.72-9.02-17.87-16.78-23.55-4.94-3.61-9.9-5.79-13.96-10.68-4.11-4.95-6.15-12.36-4.8-18.68Z"/>
    <path class="cls-3" d="M102.92,125.85c-2.42-9.1-8.17-15.47-14.9-22.3-1.06-1.27-2.31-2.25-3.56-3.31-5.66-5.81-12.24-10.38-11.17-18.84.2-1.15,1.07-4.51-.44-3.21-1.03.85-2.51,3.39-2.75,4.25-.63,2.11-1.34,4.21-.9,6.49,2.2,16.05,17.55,19.38,27.75,29.85,2.04,2.05,3.5,4.5,5.2,6.79.22.26.88,1.35,1.11,1.43.09.02-.34-1.16-.34-1.16Z"/>
    <path class="cls-3" d="M113.51,58.25c.86.76.89,2.1,1.42,3.12,4.95,9.69,17.07,10.09,26.07,6.34-6.79,6.61-20.86,7.5-25.98-1.51-.38-.68-1.51-3.05-1.51-3.67v-4.28Z"/>
    <path class="cls-1" d="M161.29,66.63c-5.06-1.41-6.16,1.94-9.9,2.67-2.55.5-1.59-.85-1.94-2.5-2.13-9.93-10.86-8.57-17.66-11.39-9.09-3.78-5.97-13.4-10.89-19.46l-3.24-3.11c-2.02.2-4.02.43-5.97,1.04,3.09.15,5.5,2.1,5.97,5.19.27.46.38,3.5.26,4.41-.12.89-1.09,3.58-1.96,3.88-1.22.42-5.35.62-6.74.54-4.6-.26-8.39-2.17-13.35-1.05-2.47.56-5.18,2.56-8.04,2.34,1.08,2.09,3.16,3.39,5.19,4.41-.11-.69,1.52-1.06,2.02-1.22,4.95-1.58,6.38-.53,10.95.84.42.13.92-.05.77.64,1.11-.42,2.45-.56,3.51-1.55-1.41,2.74-5.76,5.36-8.82,5.7-1.11.12-5.13-.45-5.32-.26-.21.22-.31,5.37-.27,6.11.94,19.19,18.01,27.79,24.88,43.86,2.56,5.99,3.46,12.26,3.15,18.77-.03.63.08,1.29.08,1.93s-.02,1.29-.05,1.94c-.08,1.28-.24,2.55-.46,3.82-.44,2.53-1.11,5.01-1.82,7.47-.27.92-.56,1.84-.85,2.76-.15.47-.31.89-.53,1.32l-.95,1.84c-.77,1.38-1.51,2.78-2.41,4.08.52-.1,1.03-.7,1.39-1.04.68-.66,1.3-1.39,1.95-2.09.37-.4.73-.8,1.08-1.22.96-1.13,1.89-2.3,2.81-3.47,1.08-1.39,2.14-2.8,3.18-4.23s2-2.79,2.95-4.23c.75-1.13,1.48-2.27,2.11-3.47.11-.21.22-.43.32-.65,5.61-12.21,6.66-24.8,1.59-37.45-1.19,1.95-1.9,4.68-2.52,6.95-1.06,3.9-2.3,8.81-2.93,12.77-.06.37.18,1.01-.39.78-.44-.18.13-.73.13-.78.02-.69-.02-1.39,0-2.08l-.78.52c-.59-8.18-2.9-16.39-7.57-23.17-3.25-4.73-10.07-11.16-10.07-17.42v-4.02c.64.68.88,1.86,1.34,2.68,5.06,8.91,14.66,10.28,18.25,22.23.13.42-.05.92.64.77,2.13-8.65,8.34-18.22,17.63-20.11,3.88-.79,4.14.33,7.17.64,3.35.34,5.33-3.62,7.62-5.69.31-.88-.91-1.05-1.51-1.22ZM115.02,66.21c-.38-.68-1.51-3.05-1.51-3.67v-4.28c.86.76.89,2.1,1.42,3.12,4.95,9.69,17.07,10.09,26.07,6.34-6.79,6.61-20.86,7.5-25.98-1.51Z"/>
    <path class="cls-4" d="M117.93,40.1s-.23-.98-.28-1.1c-.04-.11-.05-.22-.07-.33s-.05-.21-.08-.32c-.07-.25-.15-.49-.24-.73-.24-.59-.57-1.15-.99-1.63s-.89-.88-1.43-1.2-1.16-.57-1.79-.72c-.45-.11-.91-.17-1.37-.19-1.1-.05-2.41.33-3.76.25-1.2-.06-2.89-.33-4.02-.77-1.66,1.3-3.44,3.79-2.59,5.97,1.8,4.63,12.54,5.46,16.6,4.15.13-.96.04-1.93.02-2.9,0-.16,0-.32,0-.47Z"/>
    <path class="cls-1" d="M132.71,45.8c-.89-.28-3.64-1.57-4.16-2.27-.66-.91-1.44-3.83-2.19-5.26-.45-.85-1.71-2.18-1.95-2.72-.14-.32.06-.49.38-.38,9.84,4.66,19.49,8.9,26.59,17.5.24.29.63.42.52.91-3.32-1.4-6.78-2.54-10.11-3.89-2.5-1.01-3.29-2.17-5.12-3.05-1.38-.66-2.81-.48-3.96-.84Z"/>
    <path class="cls-1" d="M162.8,65.26c-.71.07-.42,0-.51-.39-.22-.91-.08-3.1-1.23-3.45-.58-.18-1.05.08-1.78-.3-.84-.43-1.32-1.57-1.42-2.47-.06-.47-.22-2.23.37-2.19.21.01,3.79,1.37,3.95,1.5.18.15.63,1.27.63,1.45v5.84Z"/>
    <path class="cls-1" d="M141.78,49.69c-1.52.18-4.52.8-5.86.28-1.58-.62-2.18-2.96-3.22-4.17,1.15.37,2.58.18,3.96.84,1.83.88,2.62,2.03,5.12,3.05Z"/>
    <path class="cls-3" d="M165.34,57l-15.39-9.12c-1.92-3.08-3.88-5.91-6.88-8.04-1.89-1.35-4.01-2.14-6.07-3.16-.37-.18-6.97-3.07-9.76-3.59-3.54-.66-6.07-.6-9.6-.26l3.24,3.11c4.92,6.06,1.79,15.68,10.89,19.46,6.8,2.83,15.53,1.46,17.66,11.39.35,1.65-.61,3,1.94,2.5,3.74-.73,4.84-4.08,9.9-2.67.6.17,1.81.34,1.51,1.22.08-.08.52-.03.79-.37.58-.71,2.13-9.89,1.76-10.48ZM151.9,53.58c-3.32-1.4-6.78-2.54-10.11-3.89-1.52.18-4.52.8-5.86.28-1.58-.62-2.18-2.96-3.22-4.17-.89-.28-3.64-1.57-4.16-2.27-.66-.91-1.44-3.83-2.19-5.26-.45-.85-1.71-2.18-1.95-2.72-.14-.32.06-.49.38-.38,9.84,4.66,19.49,8.9,26.59,17.5.24.29.63.42.52.91ZM162.8,65.26c-.71.07-.42,0-.51-.39-.22-.91-.08-3.1-1.23-3.45-.58-.18-1.05.08-1.78-.3-.84-.43-1.32-1.57-1.42-2.47-.06-.47-.22-2.23.37-2.19.21.01,3.79,1.37,3.95,1.5.18.15.63,1.27.63,1.45v5.84Z"/>
  </g>
</svg>