<svg xmlns="http://www.w3.org/2000/svg" viewBox="0 0 426.79 108.73"><path d="M129.01 105.62c-4.3 4.29-14.43 3.7-19.28.14-11.02-7.6-10.86-25.88-9.6-38.36.89-7.73 2.99-13.36 3.44-21.48.44-8.52.61-13.91-4.74-24.15-3.51-6.72-14.72-10.38-16.97.31-3.06 14.52-2.48 26.76-3.11 40.95-.22 10.18 1.26 23.15 7.77 31.08 1.88 2.39 4.62 4.62 6.24 7.02 3.91 5.89-4.6 7.55-8.97 7.28-14.1-.98-19.17-4.42-33.47-.11-5.84 1.52-11.59-.93-6.6-7.11 3.32-3.92 8.54-6.53 11.14-10.83 4.74-8.58 3.79-19.26 4.6-28.7.41-9.94-.73-20.1-.92-30.23-.28-5.13-1.74-13.72-7.13-15.6-4.22-1.48-8.33 1.04-10.6 3.91-1.55 1.96-5.57 6.3-5.34 17.31.25 11.77 5.39 22.93 4.43 40.66-.64 11.9-2.81 20.14-11.29 25.57-8.89 5.69-25.79 7.87-27.97-4.78-.44-3.43-1.4-8.81 3.04-10.4 3.86-1.38 4.05 2.87 5.24 6.31 1.07 3.09 3.65 4.01 7.12 2.22 19.13-9.89-13.19-44.6 2.81-72.34 3.61-6.26 6.73-8.61 12.69-12.61 3.49-2.35 7.29-3.84 11.29-5.43C64.84-2.5 93.01.17 110.28 13.66c18.15 15.18 16.44 31.03 14.15 49.38-.8 6.41-8.92 26.27-7.84 32.29.24 5.97 16.24 6.15 12.5 10.2l-.09.09Zm63.48-51.64c-1.57 4.98-7.94 6.66-12.16 9.04-4.24 1.97-7.78 4.29-10.71 7.62-2.86 3.32-7.21 7.22-6.32 11.74 1.21 3.58 5.84 3.65 10.25 4.16 2.16.11 4.79.16 6.56-1.11 2.9-2.35.46-8.8 5.75-9.38 5.79.07 4.73 7.91 2.95 11.6-1.85 4.81-6.95 7.94-9.49 11.72-1.99 3.32-3.53 8.16-8.27 7.71-6.77-.24-14.73-6.14-21.78-8.81-2.84-1.25-7.44-2.05-7.26-5.88.29-2.88 2.06-5.63 2.51-8.53.81-3.76.11-7.33.33-11.06.23-5.88.84-11.04.2-17.1-1.39-18.41-10.58-17.99 8.7-23.18 5.37-1.47 10.07-2.5 14.14-6.26 2.61-2.2 4.71-4.79 7.43-4.68 5.08-.23 13.71 21.72 16.12 26.52.78 1.79 1.48 3.98 1.1 5.74l-.03.15Zm-20.46-2.39c-1.4-2.61-5.56-14.71-8.51-14.61-1.13.24-.27 4.85.08 7.17.68 4.88 1.03 10.2.9 15.3.02 1.28-.19 3.82.79 4.44 1.31.56 3.27-1.15 5.16-2.76 3.01-2.39 3.18-5.83 1.67-9.34l-.08-.21Zm89.09 39.04c-1.75 2.91-5.83 4.55-7 8.06-1.4 3.08-.53 6-1.89 7.61-3.57 3.35-8.73-1.62-13.04-4.67-2.48-2.27-6.77-4.72-6.15-8.51.32-1.44 1.18-2.82 1.7-4.23 1.64-3.93.56-9.04.12-13.93-.3-3.02-.05-5.97.25-8.95.48-5.56-.12-13.04 1.51-19.15.88-3.51-2.15-5.48-4.9-6.79-2.24-1.11-5.2-2.79-6.45-3.12-1.88-.72-2.34 1.13-2.28 3.06.02 3.65.8 7.82 1.06 11.44.45 9 1.33 18.7-.19 28.06-1.7 7.65 4.95 6 4.91 10.65-.65 3.39-4.43 5.52-5.79 8.62-1.37 3.54-1.43 8.83-6.46 7.62-4.03-.89-7.93-4.96-12.05-7.63-.87-.6-1.78-1.25-2.51-1.95-3.29-2.8.12-6.4 1.02-9.5 2.01-9.6 1.81-20.04 1.71-30.07-.34-4.01.72-8.91-1.77-12.31-1.22-1.41-3.53-2.12-4.76-3.53-2.14-2.48.49-5.49 2.17-7.47 1.39-1.61 2.29-3.5 2.76-5.47.83-4.33 2.36-6.37 7.1-5.85 2.77.26 5.42 1.32 7.69 2.86 2.89 1.93 7.09 6.04 10.24 2.37 1-1.19 1.48-2.48 2.28-3.73 3.51-5.43 11.36 1.75 15.46 3.47 3.42 2.13 8.84 1.81 11.2 5.31.79 1.48.45 3.39.05 5.05-3.29 13.38-5.15 30.85-1.12 44.97.92 2.12 3.31 3.64 4.62 5.21.64.79.85 1.58.55 2.38l-.05.12Zm47.06-61.36c-1.46 2.08-2.41 4.13-2.88 6.53-.34 1.39-.5 2.96-1.37 4.1-2.03 2.4-6.83-.99-10.09-.39-6.06 1.56-2.46 12.88-2.49 17.5.37 4.78-.14 8.47-.08 12.68.3 3.87-.26 8.27-1.02 11.89-.43 5.56 7.85 4.71 11.57 6.42 4.85 1.63 1.7 5.72-.6 8.93-4.39 5.59-1.58 13.6-11.47 9.64-3.85-1.6-7.19-3.84-11.15-5.75-3.95-2-9.23-4.23-9.39-9.3-.11-1.96.32-3.98.67-5.92 1.06-5.21.81-10.21 1.15-15.77.9-7.57 1.08-15.24.74-22.79.02-2.65-.21-5.68-2.52-7.27-1.46-1.11-3.47-1.42-4.62-2.36-1.33-1.08-1.47-3.61-1.08-5.34.77-4.55 7.22-4.33 8.01-8.8 1.09-4.8-3.01-7.82-3.05-11.71-.1-2.16 2.02-3.39 4.01-2.96 2.96.31 5.21 3.41 7.81 3.34 1.98-.5 2.71-3.17 3.81-4.83 2.7-4.67 6.9-8.04 11.2-6.9 2.29.65 3.73 2.93 2.9 5.33-.86 2.63-3.37 4.66-4.84 7-1.95 2.86-2.63 3.29-2.92 7.03-.84 5.88 2.31 9.55 8.14 6.9 2.87-1.35 4.39-4.53 6.98-6.17 1.98-1.45 4.94-.82 5.22 1.9.3 2.45-1.11 4.83-2.53 6.9l-.11.17Zm58.29 59.43c-.35.92-1.34 1.57-2.29 2.02-5.29 2.77-18.3 3.66-19.92 10.11-.66 3.74-.67 6.68-5.58 5.52-6.8-1.62-12.63-6.62-18.78-9.27-2.1-1.04-5.02-1.73-6.4-3.61-.69-1.09-.22-2.64.21-3.85 4.46-14.58 5.14-34.89.74-48.05-.74-2-1.34-4.45.79-5.65 5.44-3.07 17.62-2.7 20.62-10.7 5.26-10.27 17.41 4.31 24.43 6.59 2.67.94 5.95 2.07 5.63 5.52-2.15 12.71-1.87 25.58-1.63 38.49.06 1.95-.04 3.89.27 5.78.32 2.59 2.37 4.59 1.95 6.98l-.04.12Zm-20.21-7.49c-2.19-7.52 1.01-15.53-.15-23.09-.2-4.07-.81-8.62-.27-13.02.12-1.09.24-2.51-.3-3.32-.96-1.38-2.87-1.66-4.36-2.3-1.86-.75-3.98-1.76-5.25-1.49-1.59.26-1.61 2.17-1.46 3.54.91 7.43.02 15.59 1.02 23.23.11 4.37-.67 8.57-1.38 12.83-.35 2.12-1.87 4.71-.49 6.65 2.64 2.78 10.88 3.47 12.96 2.21 1.69-.93.3-3.41-.27-5.05l-.06-.18Zm79.66-46.38c-1.19 2.5-3.66 4.98-5.1 7.65-1.41 2.33-2.2 5.19-3.79 7.34-4.02 4.6-7.65-5.96-11.24-7.02-4.73-1.68-4.1 5.82-3.79 8.67.45 4.8.5 8.98.44 13.59.03 3.19.42 6.4-.28 9.52-.26 2.86-3.17 7.4-.47 9.52 1.84 1.42 6.54 1.75 9.31 3.37 2.62 1.44 3.17 3.68 1.22 5.75-1.53 1.68-3.87 2.79-5.64 4.25-2.26 1.79-3.01 4.29-3.97 6.52-1.88 4.73-7.57 1.8-10.96.32-3.35-1.6-7.1-3.8-10.23-5.61-4.23-2.35-5.72-4.64-3.65-8.76 1.17-2.57 2.38-5.26 2.94-8.06 1.13-5.12-.12-10.74.21-16.08.41-6.63 2.04-14.72-1.66-19.71-1.09-1.57-2.61-2.98-3.62-4.55-2.28-3.13.27-6.44 1.67-9.36 1.96-4.11 2.64-9.12 6.11-10.09 4.1-.99 7.99 1.74 11.21 4.05 4.74 3.72 8.57 7.18 12.51.6 1.1-1.53 2.36-2.99 4.28-3.31 2.42-.47 5.87.81 8.91 2.34 4.34 2.13 7.54 4.72 5.66 8.88l-.07.16Z" style="fill:#fff"/></svg>