<?xml version="1.0" encoding="UTF-8"?>
<svg id="Layer_1" xmlns="http://www.w3.org/2000/svg" viewBox="0 0 609.72 168.95">
  <defs>
    <style>
      .cls-1, .cls-2, .cls-3, .cls-4 {
        stroke: #fff;
        stroke-linecap: round;
        stroke-linejoin: round;
        stroke-width: 6px;
      }

      .cls-1, .cls-5 {
        fill: #333f49;
      }

      .cls-6, .cls-4 {
        fill: #3a1e44;
      }

      .cls-7 {
        fill: #fff;
      }

      .cls-8, .cls-3 {
        fill: #b68dc9;
      }

      .cls-2, .cls-9 {
        fill: #714482;
      }
    </style>
  </defs>
  <g>
    <path class="cls-3" d="M564.68,127.56c.53,6.7-1.58,12.89-3.42,19.18l-1.05,1.84c-.09.17-.17.36-.26.53-.73,1.34-1.5,2.68-2.36,3.94-.5.72-1.12,1.34-1.84,1.84,4.23-7.62,4.98-19.17,3.59-27.63-1.29-7.92-5.09-16.39-10.16-22.55-.07.86,1.04,3.67.98,4.54-.09,1.44-1.99,1.61-2.03,2.55-1.77-2.15-3.25-4.51-5-6.69-5.01-6.24-10.98-11.5-14.4-18.96-.34-.74-.65-1.49-.94-2.25s-.54-1.52-.76-2.29-.41-1.53-.58-2.3c-.16-.77-.29-1.54-.39-2.31s-.17-1.54-.21-2.32-.05-1.54-.03-2.31.07-1.54.15-2.3.19-1.53.33-2.29.31-1.52.51-2.26c.2-.75.43-1.5.69-2.23s.55-1.48.86-2.2.67-1.45,1.04-2.15.79-1.42,1.22-2.1c.11-.18.23-.36.34-.54.11-.17.76-.72.89.04.22,1.26.27,4.89.26,5.17-.41,24.14,18.82,31.95,27.82,51.02,1.9,4.03,4.42,10.67,4.77,15.07Z"/>
    <path class="cls-3" d="M496.54,102.11c2.65,9.22,8.53,13.5,17.1,17.12.41.18.76-.13.55.62-11.34-2.19-25.97-8.45-24.29-22.42-3.44,2.35-6.79,4.99-10.44,7.02-2.98,1.66-6.2,2.73-9.23,4.23-4.82,2.39-9.42,5.19-13.51,8.7,1.02-3.59,3.02-6.86,4.91-10.04,10.88-9.61,22.9-17.45,37.04-21.39-2.82,4.61-4.03,8.81-2.86,14.23.16.73.56,1.32.73,1.92Z"/>
    <path class="cls-4" d="M555.74,154.88c-1.61,2.9-7.93,7.4-10.77,9.46,1.33-2.23,2.85-4.28,4.04-6.6,6.29-12.31,7.74-26.4,2.39-39.37-.47-1.13-3.6-6.4-3.57-6.94,0,0,1.64-.35,1.06-3.59s-3.51-7.61-3.43-8.47c7.61,7.83,12.59,19.97,13.88,27.88,1.38,8.47.63,20.01-3.59,27.63Z"/>
    <path class="cls-3" d="M544.45,33.24c-1.68,1.32-3.48,3.84-2.63,6.04.21,2.81,2.34,5.1,4.46,6.7-6.95.35-13.09-6.46-9.29-13.24.61-1.08,1.79-1.76,2.2-2.92,4.85-2.93,13.58-5.58,13.14-12.35,3.14-2.68,4.65-6.52,4.2-10.64-.12-1.12-1.63-3.72-.39-3.83,1.33-.12,3.48,3.03,4.02,4.14,3.48,7.1.04,15.05-5.61,19.78-3.11,2.61-7.09,3.96-10.11,6.31Z"/>
    <path class="cls-3" d="M569.4,112.32l-.79.52c-.59-8.28-2.94-16.6-7.67-23.47-3.29-4.79-10.2-11.31-10.2-17.65v-4.07c.64.69.89,1.88,1.36,2.71,5.12,9.02,14.85,10.41,18.48,22.52.13.43-.05.93.65.78-1.45,5.92-1.63,12.56-1.84,18.65Z"/>
    <path class="cls-2" d="M539.19,29.82c-.11.07-.57,0-.93.24-4.44,2.83-7.59,8.04-6.95,13.42-3.11-3.13-4.6-7.1-3.16-11.44,3.22-9.73,17.47-8.83,24.18-14.57.44,6.77-8.29,9.42-13.14,12.35Z"/>
    <path class="cls-3" d="M584.12,39.8c-1.91-1.36-4.06-2.17-6.14-3.2-.38-.19-2.22.03-2.09-.59,4.98.31,16.02-4.23,15.32-10.4,1.98-2.03,3.3-5.98,3.16-8.81-.04-.9-1.22-4.42-1.06-4.59.89-.88,3.74,2.63,4.15,3.33,4.88,8.16-.56,17.42-7.92,21.67-1.74,1.01-3.69,1.59-5.43,2.58Z"/>
    <path class="cls-4" d="M539.19,29.82c-.41,1.16-1.59,1.84-2.2,2.92-3.8,6.78,2.35,13.59,9.29,13.24-2.12-1.6-4.25-3.9-4.46-6.7,1.82,4.69,12.7,5.53,16.81,4.2-.12.9-1.11,3.63-1.98,3.93-1.23.42-5.42.63-6.83.55-4.66-.26-8.5-2.19-13.52-1.06-1.94-.96-3.47-1.88-4.99-3.42-.64-5.38,2.52-10.59,6.95-13.42.36-.23.82-.18.93-.24Z"/>
    <path class="cls-2" d="M591.21,25.62c.7,6.17-8.56,10.55-14.91,10.39-2.12-.05-5.38-2.51-8.21-3.03,6.19-1.82,13.9-1.66,19.62-4.95.73-.42,3-1.9,3.5-2.41Z"/>
    <path class="cls-3" d="M478.78,65.6c2.57,3.18,3.06,6.26,1.81,10.23l-1.33-3.82c-2.98-4.77-9.08-4.07-13.96-3.9,2.26-1.49,6.44-3.01,9.17-2.97,1.5.02,2.91.69,4.31.46Z"/>
    <path class="cls-3" d="M533.41,53.73c-.11-.7,1.54-1.07,2.05-1.24,5.01-1.6,6.47-.54,11.09.85.43.13.93-.05.78.65-5.19,1.97-8.7,2.37-13.92-.26Z"/>
    <path class="cls-1" d="M569.67,114.42c-.06.37.18,1.02-.39.79-.45-.18.13-.74.13-.79h.26Z"/>
    <path class="cls-4" d="M551.4,118.37c-.47-1.13-1.73-5.06-7.95-13.05-4.91-6.31-11.3-11.72-14.73-19.18-4.6-10-3.74-20.9,2.33-30.04-3.23,2.05-6.9,7.22-8.71,10.6-6.41,11.93-6.15,24.25,2,34.97.04.05-.07.21-.03.26l.47.58c6.48,8.13,11.16,13.77,13.24,24.41.74,3.81,1.11,7.42.91,11.31l-.71,4.03c-.82-9.99-7.15-18.97-14.36-25.53-4.58-4.17-9.34-6.9-12.91-12.26-3.61-5.43-4.86-13.11-2.82-19.33,0-.17.05-.35.06-.52,0-.28.02-.66.35-.76.01-.26.04-.53.08-.78.12-.63.54-.93.66-1.25.22-.59.47-1.19.72-1.77,0-.01-.07-.02.03-.26.21-.5.45-.82.66-1.25,0,0,.26.03.26.03.25-.38.5-.76.76-1.13.25-.36.55-.7.77-1.06-.13,0-.27.02-.39.04-.21.04-.36.18-.51.32-.32.31-.66.61-.99.9-.94.82-1.93,1.56-2.87,2.38-.82.71-1.61,1.44-2.38,2.2-1.5,1.48-2.9,3.07-4.13,4.79-1.2,1.69-2.23,3.5-3.01,5.42-.8,1.99-1.32,4.08-1.55,6.21-.12,1.16-.16,2.32-.12,3.48,2.65,9.22,8.53,13.5,17.1,17.12.41.18.76-.13.55.62-11.34-2.19-25.97-8.45-24.29-22.42-3.44,2.35-6.79,4.99-10.44,7.02-2.98,1.66-6.2,2.73-9.23,4.23-4.82,2.39-9.42,5.19-13.51,8.7,1.02-3.59,3.02-6.86,4.91-10.04,1.29-2.17,2.51-4.33,4.1-6.3,4.73-5.84,14.32-12.53,21.64-14.46l.03-.26c-10.29-.31-18.51,3.65-28.17,6.35-2.48.7-7.14,2.32-9.49,2.45-3.74.21-4.74-4.11-1.46-5.97,3.27-1.86,13.21-2.84,17.44-3.83,6.05-1.41,12.78-2.8,14.89-9.51l-1.33-3.82c-2.98-4.77-9.08-4.07-13.96-3.9,2.26-1.49,6.44-3.01,9.17-2.97,1.5.02,2.91.69,4.31.46-7.91-9.8-17.34,1.2-24.76-4.02-1.29-.91-2.74-3.42-2.98-3.44-.65-.07-1.7,5.76,2.66,12.3,3.01,4.52,10.43,7.57,15.47,4.7,1.6-.91,3.56-4.75,5.16-2.49,2,2.83-1.85,4.58-3.83,5.32-6.84,2.54-22.58,3.63-27.05,7.89-4.97,4.73-3.4,12.63,3.32,14.51,3.91,1.1,7.4-.41,11.21-.93-6.86,8.34-11.44,18.53-13.16,29.25-.19,1.18-1.1,8.99-.73,9.3.34.29.59-.2.78-.36,11.9-9.58,18.37-16.05,34.47-18.51,29.05-4.44,66.01,14.28,63.54,46.81.2.22,1.07-.6,1.31-.79.25-.19.41-.44.53-.53.1-.07.17-.2.26-.26,1.33-2.23,2.85-4.28,4.04-6.6,6.29-12.31,7.74-26.4,2.39-39.37ZM464.88,68.34l.03-.26.12.14-.14.12Z"/>
    <path class="cls-4" d="M508.13,85.12c-.18,17.76,15.71,22.16,24.99,34.38,1.9,2.5,2.95,5.06,4.53,7.57.52.83.26.09.36-.17.74,3.81,1.11,7.42.91,11.31l-.71,4.03c-.82-9.99-7.15-18.97-14.36-25.53-4.58-4.17-9.34-6.9-12.91-12.26-3.61-5.43-4.86-13.11-2.82-19.33Z"/>
    <path class="cls-3" d="M538.04,127.06c-1.46-9.42-6.56-16.46-12.6-24.06-.93-1.39-2.08-2.51-3.23-3.72-5.07-6.46-11.21-11.77-9.22-20.18.32-1.14,1.56-4.43-.1-3.28-1.13.75-2.9,3.15-3.23,3.99-.86,2.06-1.8,4.09-1.6,6.44.48,16.4,15.59,21.42,24.73,33.06,1.83,2.28,3.04,4.91,4.51,7.4.2.29.74,1.45.96,1.56.09.03-.22-1.2-.22-1.2Z"/>
    <path class="cls-3" d="M554.17,58.46c.87.77.91,2.13,1.43,3.16,5.01,9.82,17.29,10.22,26.41,6.42-6.88,6.7-21.13,7.6-26.31-1.53-.39-.69-1.53-3.09-1.53-3.72v-4.34Z"/>
    <path class="cls-4" d="M602.56,66.94c-5.12-1.43-6.24,1.97-10.02,2.7-2.59.5-1.61-.87-1.97-2.53-2.16-10.06-11-8.68-17.88-11.54-9.21-3.83-6.04-13.57-11.03-19.71l-3.29-3.15c-2.05.2-4.07.43-6.04,1.05,3.13.15,5.57,2.13,6.04,5.25.27.47.39,3.55.26,4.47-.12.9-1.11,3.63-1.98,3.93-1.23.42-5.42.63-6.83.55-4.66-.26-8.5-2.19-13.52-1.06-2.5.56-5.25,2.59-8.14,2.37,1.1,2.12,3.21,3.43,5.25,4.46-.11-.7,1.54-1.07,2.05-1.24,5.01-1.6,6.47-.54,11.09.85.43.13.93-.05.78.65,1.13-.43,2.48-.56,3.55-1.57-1.43,2.78-5.83,5.43-8.93,5.78-1.13.12-5.2-.46-5.39-.26-.21.22-.31,5.44-.27,6.19.96,19.44,18.24,28.14,25.19,44.43,2.59,6.07,3.51,12.42,3.19,19.01-.03.64.08,1.31.08,1.95s-.02,1.31-.06,1.97c-.08,1.3-.24,2.59-.46,3.86-.44,2.56-1.12,5.07-1.85,7.56-.27.94-.56,1.87-.86,2.8-.15.47-.31.9-.54,1.34-.32.62-.64,1.24-.97,1.87-.78,1.4-1.53,2.81-2.44,4.13.53-.1,1.04-.7,1.41-1.06.69-.67,1.32-1.41,1.98-2.12.37-.4.73-.82,1.09-1.23.98-1.15,1.92-2.33,2.84-3.52,1.1-1.41,2.17-2.84,3.22-4.28s2.03-2.83,2.99-4.28c.76-1.14,1.5-2.3,2.14-3.52.11-.22.22-.44.33-.66,5.68-12.37,6.75-25.12,1.61-37.93-1.21,1.98-1.92,4.74-2.55,7.04-1.07,3.95-2.33,8.92-2.97,12.93-.06.37.18,1.02-.39.79-.45-.18.13-.74.13-.79.02-.7-.02-1.4,0-2.1l-.79.52c-.59-8.28-2.94-16.6-7.67-23.47-3.29-4.79-10.2-11.31-10.2-17.65v-4.07c.64.69.89,1.88,1.36,2.71,5.12,9.02,14.85,10.41,18.48,22.52.13.43-.05.93.65.78,2.15-8.76,8.44-18.45,17.86-20.37,3.93-.8,4.19.34,7.26.65,3.39.34,5.4-3.67,7.72-5.76.31-.89-.92-1.07-1.52-1.24ZM555.7,66.51c-.39-.69-1.53-3.09-1.53-3.72v-4.34c.87.77.91,2.13,1.43,3.16,5.01,9.82,17.29,10.22,26.41,6.42-6.88,6.7-21.13,7.6-26.31-1.53Z"/>
    <path class="cls-2" d="M558.65,40.07s-.24-1-.28-1.11c-.04-.11-.05-.22-.07-.33s-.05-.22-.08-.32c-.07-.25-.15-.5-.24-.74-.24-.6-.58-1.16-1-1.65s-.91-.89-1.45-1.22-1.18-.58-1.81-.73c-.45-.11-.92-.17-1.39-.2-1.12-.05-2.44.33-3.81.26-1.22-.06-2.93-.34-4.08-.78-1.68,1.32-3.48,3.84-2.63,6.04,1.82,4.69,12.7,5.53,16.81,4.2.13-.97.04-1.96.02-2.94,0-.16,0-.32,0-.48Z"/>
    <path class="cls-4" d="M573.61,45.85c-.9-.29-3.69-1.59-4.21-2.3-.67-.92-1.46-3.88-2.22-5.33-.46-.86-1.74-2.21-1.97-2.76-.14-.32.06-.5.39-.39,9.97,4.72,19.74,9.01,26.94,17.73.24.29.64.43.52.92-3.36-1.42-6.87-2.57-10.24-3.94-2.53-1.03-3.33-2.2-5.19-3.09-1.4-.67-2.85-.48-4.01-.85Z"/>
    <path class="cls-4" d="M604.08,65.55c-.72.07-.42,0-.52-.4-.22-.93-.08-3.14-1.24-3.49-.59-.18-1.06.08-1.8-.3-.85-.43-1.33-1.6-1.44-2.5-.06-.48-.22-2.26.37-2.22.21.01,3.84,1.38,4,1.52.18.15.63,1.29.63,1.47v5.91Z"/>
    <path class="cls-4" d="M582.8,49.79c-1.54.19-4.58.81-5.93.28-1.6-.62-2.21-3-3.26-4.22,1.16.37,2.61.18,4.01.85,1.86.89,2.65,2.06,5.19,3.09Z"/>
    <path class="cls-3" d="M606.67,57.19l-15.58-9.24c-1.94-3.12-3.93-5.98-6.96-8.14-1.91-1.36-4.06-2.17-6.14-3.2-.38-.19-7.05-3.11-9.88-3.63-3.58-.67-6.15-.61-9.72-.26l3.29,3.15c4.98,6.14,1.82,15.88,11.03,19.71,6.88,2.86,15.73,1.48,17.88,11.54.36,1.67-.62,3.03,1.97,2.53,3.79-.73,4.9-4.13,10.02-2.7.6.17,1.84.34,1.52,1.24.08-.08.52-.03.8-.37.58-.72,2.16-10.02,1.78-10.62ZM593.05,53.73c-3.36-1.42-6.87-2.57-10.24-3.94-1.54.19-4.58.81-5.93.28-1.6-.62-2.21-3-3.26-4.22-.9-.29-3.69-1.59-4.21-2.3-.67-.92-1.46-3.88-2.22-5.33-.46-.86-1.74-2.21-1.97-2.76-.14-.32.06-.5.39-.39,9.97,4.72,19.74,9.01,26.94,17.73.24.29.64.43.52.92ZM604.08,65.55c-.72.07-.42,0-.52-.4-.22-.93-.08-3.14-1.24-3.49-.59-.18-1.06.08-1.8-.3-.85-.43-1.33-1.6-1.44-2.5-.06-.48-.22-2.26.37-2.22.21.01,3.83,1.38,4,1.52.18.15.63,1.29.63,1.47v5.91Z"/>
  </g>
  <g>
    <g>
      <path class="cls-7" d="M131.76,135.06c-4.3,4.34-14.43,3.74-19.28.14-11.02-7.69-10.86-25.7-9.6-38.33.89-7.82,2.99-13.52,3.44-21.73.44-8.62.61-14.08-4.74-24.44-3.51-6.8-14.72-10.51-16.97.31-3.06,14.69-2.48,27.07-3.11,41.43-.22,10.3,1.26,23.42,7.77,31.45,1.88,2.42,4.62,4.19,6.24,6.62,3.91,5.96-4.6,7.98-8.97,7.71-14.1-.99-19.17-4.82-33.47-.46-5.84,1.53-11.59-.94-6.6-7.19,3.32-3.97,8.54-6.13,11.14-10.47,4.74-8.68,3.79-19.49,4.6-29.04.41-10.06-.73-20.34-.92-30.59-.28-5.19-1.74-13.88-7.13-15.79-4.22-1.5-8.33,1.05-10.6,3.96-1.55,1.98-5.57,6.38-5.34,17.51.25,11.91,5.39,23.2,4.43,41.15-.64,12.04-2.81,20.38-11.29,25.87-8.89,5.75-25.79,7.96-27.97-4.83-.44-3.47-1.4-8.92,3.04-10.52,3.86-1.39,4.05,2.91,5.24,6.38,1.07,3.12,3.65,4.06,7.12,2.24,19.13-10-13.19-45.13,2.81-73.2,3.61-6.34,6.73-8.71,12.69-12.76,3.49-2.37,7.29-3.88,11.29-5.49,22.01-8.85,50.19-6.15,67.45,7.5,18.15,15.36,16.44,31.4,14.15,49.96-.8,6.48-8.92,26.58-7.84,32.68.24,6.04,16.24,5.74,12.5,9.83l-.09.09Z"/>
      <path class="cls-7" d="M195.24,84.32c-1.57,5.02-7.94,6.71-12.16,9.1-4.24,1.99-7.78,4.32-10.71,7.67-2.86,3.34-7.21,7.26-6.32,11.82,1.21,3.6,5.84,3.68,10.25,4.18,2.16.12,4.79.16,6.56-1.12,2.9-2.37.46-8.86,5.75-9.44,5.79.07,4.73,7.97,2.95,11.68-1.85,4.85-6.95,7.99-9.49,11.8-1.99,3.34-3.53,8.67-8.27,8.22-6.77-.24-14.73-6.63-21.78-9.33-2.84-1.26-7.44-2.06-7.26-5.92.29-2.89,2.06-5.67,2.51-8.59.81-3.79.11-7.38.33-11.14.23-5.92.84-11.12.2-17.21-1.39-18.54-10.58-18.11,8.7-23.34,5.37-1.48,10.07-2.52,14.14-6.3,2.61-2.22,4.71-4.82,7.43-4.71,5.08-.23,13.71,21.87,16.12,26.7.78,1.8,1.48,4.01,1.1,5.78l-.03.15ZM174.78,81.92c-1.4-2.63-5.56-14.81-8.51-14.71-1.13.24-.27,4.89.08,7.21.68,4.92,1.03,10.27.9,15.41.02,1.29-.19,3.84.79,4.47,1.31.57,3.27-1.16,5.16-2.78,3.01-2.4,3.18-5.87,1.67-9.4l-.08-.21Z"/>
      <path class="cls-7" d="M263.87,121.11c-1.75,2.95-5.83,4.61-7,8.17-1.4,3.12-.53,6.08-1.89,7.72-3.57,3.39-8.73-1.64-13.04-4.74-2.48-2.3-6.77-4.78-6.15-8.63.32-1.46,1.18-2.85,1.7-4.29,1.64-3.98.56-9.16.12-14.12-.3-3.07-.05-6.05.25-9.07.48-5.63-.12-13.21,1.51-19.41.88-3.56-2.15-5.55-4.9-6.88-2.24-1.12-5.2-2.83-6.45-3.16-1.88-.73-2.34,1.14-2.28,3.1.02,3.7.8,7.93,1.06,11.59.45,9.12,1.33,18.95-.19,28.44-1.7,7.75,4.95,6.08,4.91,10.8-.65,3.43-4.43,5.59-5.79,8.74-1.37,3.59-1.43,9.91-6.46,8.69-4.03-.9-7.93-5.99-12.05-8.69-.87-.6-1.78-1.27-2.51-1.98-3.29-2.84.12-6.48,1.02-9.63,2.01-9.73,1.81-20.31,1.71-30.48-.34-4.06.72-9.03-1.77-12.48-1.22-1.43-3.53-2.15-4.76-3.58-2.14-2.51.49-5.57,2.17-7.57,1.39-1.63,2.29-3.54,2.76-5.55.83-4.39,2.36-6.46,7.1-5.93,2.77.27,5.42,1.33,7.69,2.9,2.89,1.96,7.09,6.12,10.24,2.4,1-1.21,1.48-2.52,2.28-3.78,3.51-5.51,11.36,1.78,15.46,3.52,3.42,2.16,8.84,1.84,11.2,5.39.79,1.5.45,3.44.05,5.12-3.29,13.56-5.15,31.27-1.12,45.58.92,2.15,3.31,3.69,4.62,5.28.64.8.85,1.6.55,2.42l-.05.12Z"/>
      <path class="cls-7" d="M310.93,59.44c-1.46,2.1-2.41,4.16-2.88,6.58-.34,1.4-.5,2.98-1.37,4.13-2.03,2.42-6.83-1-10.09-.39-6.06,1.57-2.46,12.97-2.49,17.62.37,4.82-.14,8.53-.08,12.77.3,3.9-.26,8.33-1.02,11.98-.43,5.6,7.85,4.74,11.57,6.46,4.85,1.64,1.7,5.76-.6,8.99-4.39,5.63-1.58,13.62-11.47,9.63-3.85-1.61-7.19-3.79-11.15-5.71-3.95-2.01-9.23-4.26-9.39-9.36-.11-1.97.32-4,.67-5.96,1.06-5.24.81-10.28,1.15-15.88.9-7.62,1.08-15.35.74-22.94.02-2.66-.21-5.72-2.52-7.32-1.46-1.12-3.47-1.42-4.62-2.38-1.33-1.08-1.47-3.63-1.08-5.38.77-4.58,7.22-4.36,8.01-8.86,1.09-4.83-3.01-7.88-3.05-11.79-.1-2.18,2.02-3.41,4.01-2.98,2.96.31,5.21,3.44,7.81,3.36,1.98-.5,2.71-3.19,3.81-4.86,2.7-4.7,6.9-8.09,11.2-6.94,2.29.66,3.73,2.95,2.9,5.36-.86,2.65-3.37,4.69-4.84,7.05-1.95,2.88-2.63,3.32-2.92,7.08-.84,5.92,2.31,9.62,8.14,6.94,2.87-1.36,4.39-4.56,6.98-6.22,1.98-1.46,4.94-.83,5.22,1.91.3,2.47-1.11,4.87-2.53,6.95l-.11.17Z"/>
      <path class="cls-7" d="M369.22,120.01c-.35.94-1.34,1.6-2.29,2.06-5.29,2.82-18.3,3.73-19.92,10.29-.66,3.81-.67,6.8-5.58,5.62-6.8-1.64-12.63-6.74-18.78-9.43-2.1-1.06-5.02-1.76-6.4-3.68-.69-1.11-.22-2.69.21-3.92,4.46-14.84,5.14-35.51.74-48.9-.74-2.03-1.34-4.53.79-5.75,5.44-3.13,17.62-2.75,20.62-10.89,5.26-10.45,17.41,4.39,24.43,6.71,2.67.96,5.95,2.1,5.63,5.62-2.15,12.93-1.87,26.03-1.63,39.18.06,1.98-.04,3.96.27,5.88.32,2.64,2.37,4.67,1.95,7.1l-.04.12ZM349.01,112.39c-2.19-7.65,1.01-15.81-.15-23.5-.2-4.14-.81-8.77-.27-13.25.12-1.11.24-2.56-.3-3.37-.96-1.4-2.87-1.69-4.36-2.35-1.86-.77-3.98-1.79-5.25-1.52-1.59.26-1.61,2.21-1.46,3.6.91,7.57.02,15.86,1.02,23.64.11,4.45-.67,8.73-1.38,13.05-.35,2.16-1.87,4.79-.49,6.77,2.64,2.83,10.88,3.53,12.96,2.24,1.69-.94.3-3.47-.27-5.14l-.06-.18Z"/>
      <path class="cls-7" d="M428.67,64.89c-1.19,2.56-3.66,5.09-5.1,7.81-1.41,2.38-2.2,5.31-3.79,7.5-4.02,4.7-7.65-6.09-11.24-7.17-4.73-1.71-4.1,5.95-3.79,8.86.45,4.9.5,9.17.44,13.88.03,3.25.42,6.54-.28,9.73-.26,2.92-3.17,7.56-.47,9.73,1.84,1.45,6.54,1.79,9.31,3.45,2.62,1.47,3.17,3.76,1.22,5.88-1.53,1.72-3.87,2.85-5.64,4.34-2.26,1.82-3.01,4.38-3.97,6.66-1.88,4.83-7.57,1.84-10.96.32-3.35-1.63-7.1-3.89-10.23-5.73-4.23-2.4-5.72-4.75-3.65-8.95,1.17-2.62,2.38-5.37,2.94-8.24,1.13-5.24-.12-10.97.21-16.43.41-6.77,2.04-15.04-1.66-20.14-1.09-1.61-2.61-3.04-3.62-4.65-2.28-3.2.27-6.58,1.67-9.56,1.96-4.2,2.64-9.31,6.11-10.31,4.1-1.01,7.99,1.78,11.21,4.14,4.74,3.8,8.57,7.33,12.51.62,1.1-1.57,2.36-3.06,4.28-3.38,2.42-.48,5.87.83,8.91,2.39,4.34,2.17,7.54,4.82,5.66,9.08l-.07.16Z"/>
    </g>
    <g>
      <path class="cls-8" d="M564.68,127.56c.53,6.7-1.58,12.89-3.42,19.18l-1.05,1.84c-.09.17-.17.36-.26.53-.73,1.34-1.5,2.68-2.36,3.94-.5.72-1.12,1.34-1.84,1.84,4.23-7.62,4.98-19.17,3.59-27.63-1.29-7.92-5.09-16.39-10.16-22.55-.07.86,1.04,3.67.98,4.54-.09,1.44-1.99,1.61-2.03,2.55-1.77-2.15-3.25-4.51-5-6.69-5.01-6.24-10.98-11.5-14.4-18.96-.34-.74-.65-1.49-.94-2.25s-.54-1.52-.76-2.29-.41-1.53-.58-2.3c-.16-.77-.29-1.54-.39-2.31s-.17-1.54-.21-2.32-.05-1.54-.03-2.31.07-1.54.15-2.3.19-1.53.33-2.29.31-1.52.51-2.26c.2-.75.43-1.5.69-2.23s.55-1.48.86-2.2.67-1.45,1.04-2.15.79-1.42,1.22-2.1c.11-.18.23-.36.34-.54.11-.17.76-.72.89.04.22,1.26.27,4.89.26,5.17-.41,24.14,18.82,31.95,27.82,51.02,1.9,4.03,4.42,10.67,4.77,15.07Z"/>
      <path class="cls-8" d="M496.54,102.11c2.65,9.22,8.53,13.5,17.1,17.12.41.18.76-.13.55.62-11.34-2.19-25.97-8.45-24.29-22.42-3.44,2.35-6.79,4.99-10.44,7.02-2.98,1.66-6.2,2.73-9.23,4.23-4.82,2.39-9.42,5.19-13.51,8.7,1.02-3.59,3.02-6.86,4.91-10.04,10.88-9.61,22.9-17.45,37.04-21.39-2.82,4.61-4.03,8.81-2.86,14.23.16.73.56,1.32.73,1.92Z"/>
      <path class="cls-6" d="M555.74,154.88c-1.61,2.9-7.93,7.4-10.77,9.46,1.33-2.23,2.85-4.28,4.04-6.6,6.29-12.31,7.74-26.4,2.39-39.37-.47-1.13-3.6-6.4-3.57-6.94,0,0,1.64-.35,1.06-3.59s-3.51-7.61-3.43-8.47c7.61,7.83,12.59,19.97,13.88,27.88,1.38,8.47.63,20.01-3.59,27.63Z"/>
      <path class="cls-8" d="M544.45,33.24c-1.68,1.32-3.48,3.84-2.63,6.04.21,2.81,2.34,5.1,4.46,6.7-6.95.35-13.09-6.46-9.29-13.24.61-1.08,1.79-1.76,2.2-2.92,4.85-2.93,13.58-5.58,13.14-12.35,3.14-2.68,4.65-6.52,4.2-10.64-.12-1.12-1.63-3.72-.39-3.83,1.33-.12,3.48,3.03,4.02,4.14,3.48,7.1.04,15.05-5.61,19.78-3.11,2.61-7.09,3.96-10.11,6.31Z"/>
      <path class="cls-8" d="M569.4,112.32l-.79.52c-.59-8.28-2.94-16.6-7.67-23.47-3.29-4.79-10.2-11.31-10.2-17.65v-4.07c.64.69.89,1.88,1.36,2.71,5.12,9.02,14.85,10.41,18.48,22.52.13.43-.05.93.65.78-1.45,5.92-1.63,12.56-1.84,18.65Z"/>
      <path class="cls-9" d="M539.19,29.82c-.11.07-.57,0-.93.24-4.44,2.83-7.59,8.04-6.95,13.42-3.11-3.13-4.6-7.1-3.16-11.44,3.22-9.73,17.47-8.83,24.18-14.57.44,6.77-8.29,9.42-13.14,12.35Z"/>
      <path class="cls-8" d="M584.12,39.8c-1.91-1.36-4.06-2.17-6.14-3.2-.38-.19-2.22.03-2.09-.59,4.98.31,16.02-4.23,15.32-10.4,1.98-2.03,3.3-5.98,3.16-8.81-.04-.9-1.22-4.42-1.06-4.59.89-.88,3.74,2.63,4.15,3.33,4.88,8.16-.56,17.42-7.92,21.67-1.74,1.01-3.69,1.59-5.43,2.58Z"/>
      <path class="cls-6" d="M539.19,29.82c-.41,1.16-1.59,1.84-2.2,2.92-3.8,6.78,2.35,13.59,9.29,13.24-2.12-1.6-4.25-3.9-4.46-6.7,1.82,4.69,12.7,5.53,16.81,4.2-.12.9-1.11,3.63-1.98,3.93-1.23.42-5.42.63-6.83.55-4.66-.26-8.5-2.19-13.52-1.06-1.94-.96-3.47-1.88-4.99-3.42-.64-5.38,2.52-10.59,6.95-13.42.36-.23.82-.18.93-.24Z"/>
      <path class="cls-9" d="M591.21,25.62c.7,6.17-8.56,10.55-14.91,10.39-2.12-.05-5.38-2.51-8.21-3.03,6.19-1.82,13.9-1.66,19.62-4.95.73-.42,3-1.9,3.5-2.41Z"/>
      <path class="cls-8" d="M478.78,65.6c2.57,3.18,3.06,6.26,1.81,10.23l-1.33-3.82c-2.98-4.77-9.08-4.07-13.96-3.9,2.26-1.49,6.44-3.01,9.17-2.97,1.5.02,2.91.69,4.31.46Z"/>
      <path class="cls-8" d="M533.41,53.73c-.11-.7,1.54-1.07,2.05-1.24,5.01-1.6,6.47-.54,11.09.85.43.13.93-.05.78.65-5.19,1.97-8.7,2.37-13.92-.26Z"/>
      <path class="cls-5" d="M569.67,114.42c-.06.37.18,1.02-.39.79-.45-.18.13-.74.13-.79h.26Z"/>
      <path class="cls-6" d="M551.4,118.37c-.47-1.13-1.73-5.06-7.95-13.05-4.91-6.31-11.3-11.72-14.73-19.18-4.6-10-3.74-20.9,2.33-30.04-3.23,2.05-6.9,7.22-8.71,10.6-6.41,11.93-6.15,24.25,2,34.97.04.05-.07.21-.03.26l.47.58c6.48,8.13,11.16,13.77,13.24,24.41.74,3.81,1.11,7.42.91,11.31l-.71,4.03c-.82-9.99-7.15-18.97-14.36-25.53-4.58-4.17-9.34-6.9-12.91-12.26-3.61-5.43-4.86-13.11-2.82-19.33,0-.17.05-.35.06-.52,0-.28.02-.66.35-.76.01-.26.04-.53.08-.78.12-.63.54-.93.66-1.25.22-.59.47-1.19.72-1.77,0-.01-.07-.02.03-.26.21-.5.45-.82.66-1.25,0,0,.26.03.26.03.25-.38.5-.76.76-1.13.25-.36.55-.7.77-1.06-.13,0-.27.02-.39.04-.21.04-.36.18-.51.32-.32.31-.66.61-.99.9-.94.82-1.93,1.56-2.87,2.38-.82.71-1.61,1.44-2.38,2.2-1.5,1.48-2.9,3.07-4.13,4.79-1.2,1.69-2.23,3.5-3.01,5.42-.8,1.99-1.32,4.08-1.55,6.21-.12,1.16-.16,2.32-.12,3.48,2.65,9.22,8.53,13.5,17.1,17.12.41.18.76-.13.55.62-11.34-2.19-25.97-8.45-24.29-22.42-3.44,2.35-6.79,4.99-10.44,7.02-2.98,1.66-6.2,2.73-9.23,4.23-4.82,2.39-9.42,5.19-13.51,8.7,1.02-3.59,3.02-6.86,4.91-10.04,1.29-2.17,2.51-4.33,4.1-6.3,4.73-5.84,14.32-12.53,21.64-14.46l.03-.26c-10.29-.31-18.51,3.65-28.17,6.35-2.48.7-7.14,2.32-9.49,2.45-3.74.21-4.74-4.11-1.46-5.97,3.27-1.86,13.21-2.84,17.44-3.83,6.05-1.41,12.78-2.8,14.89-9.51l-1.33-3.82c-2.98-4.77-9.08-4.07-13.96-3.9,2.26-1.49,6.44-3.01,9.17-2.97,1.5.02,2.91.69,4.31.46-7.91-9.8-17.34,1.2-24.76-4.02-1.29-.91-2.74-3.42-2.98-3.44-.65-.07-1.7,5.76,2.66,12.3,3.01,4.52,10.43,7.57,15.47,4.7,1.6-.91,3.56-4.75,5.16-2.49,2,2.83-1.85,4.58-3.83,5.32-6.84,2.54-22.58,3.63-27.05,7.89-4.97,4.73-3.4,12.63,3.32,14.51,3.91,1.1,7.4-.41,11.21-.93-6.86,8.34-11.44,18.53-13.16,29.25-.19,1.18-1.1,8.99-.73,9.3.34.29.59-.2.78-.36,11.9-9.58,18.37-16.05,34.47-18.51,29.05-4.44,66.01,14.28,63.54,46.81.2.22,1.07-.6,1.31-.79.25-.19.41-.44.53-.53.1-.07.17-.2.26-.26,1.33-2.23,2.85-4.28,4.04-6.6,6.29-12.31,7.74-26.4,2.39-39.37ZM464.88,68.34l.03-.26.12.14-.14.12Z"/>
      <path class="cls-6" d="M508.13,85.12c-.18,17.76,15.71,22.16,24.99,34.38,1.9,2.5,2.95,5.06,4.53,7.57.52.83.26.09.36-.17.74,3.81,1.11,7.42.91,11.31l-.71,4.03c-.82-9.99-7.15-18.97-14.36-25.53-4.58-4.17-9.34-6.9-12.91-12.26-3.61-5.43-4.86-13.11-2.82-19.33Z"/>
      <path class="cls-8" d="M538.04,127.06c-1.46-9.42-6.56-16.46-12.6-24.06-.93-1.39-2.08-2.51-3.23-3.72-5.07-6.46-11.21-11.77-9.22-20.18.32-1.14,1.56-4.43-.1-3.28-1.13.75-2.9,3.15-3.23,3.99-.86,2.06-1.8,4.09-1.6,6.44.48,16.4,15.59,21.42,24.73,33.06,1.83,2.28,3.04,4.91,4.51,7.4.2.29.74,1.45.96,1.56.09.03-.22-1.2-.22-1.2Z"/>
      <path class="cls-8" d="M554.17,58.46c.87.77.91,2.13,1.43,3.16,5.01,9.82,17.29,10.22,26.41,6.42-6.88,6.7-21.13,7.6-26.31-1.53-.39-.69-1.53-3.09-1.53-3.72v-4.34Z"/>
      <path class="cls-6" d="M602.56,66.94c-5.12-1.43-6.24,1.97-10.02,2.7-2.59.5-1.61-.87-1.97-2.53-2.16-10.06-11-8.68-17.88-11.54-9.21-3.83-6.04-13.57-11.03-19.71l-3.29-3.15c-2.05.2-4.07.43-6.04,1.05,3.13.15,5.57,2.13,6.04,5.25.27.47.39,3.55.26,4.47-.12.9-1.11,3.63-1.98,3.93-1.23.42-5.42.63-6.83.55-4.66-.26-8.5-2.19-13.52-1.06-2.5.56-5.25,2.59-8.14,2.37,1.1,2.12,3.21,3.43,5.25,4.46-.11-.7,1.54-1.07,2.05-1.24,5.01-1.6,6.47-.54,11.09.85.43.13.93-.05.78.65,1.13-.43,2.48-.56,3.55-1.57-1.43,2.78-5.83,5.43-8.93,5.78-1.13.12-5.2-.46-5.39-.26-.21.22-.31,5.44-.27,6.19.96,19.44,18.24,28.14,25.19,44.43,2.59,6.07,3.51,12.42,3.19,19.01-.03.64.08,1.31.08,1.95s-.02,1.31-.06,1.97c-.08,1.3-.24,2.59-.46,3.86-.44,2.56-1.12,5.07-1.85,7.56-.27.94-.56,1.87-.86,2.8-.15.47-.31.9-.54,1.34-.32.62-.64,1.24-.97,1.87-.78,1.4-1.53,2.81-2.44,4.13.53-.1,1.04-.7,1.41-1.06.69-.67,1.32-1.41,1.98-2.12.37-.4.73-.82,1.09-1.23.98-1.15,1.92-2.33,2.84-3.52,1.1-1.41,2.17-2.84,3.22-4.28s2.03-2.83,2.99-4.28c.76-1.14,1.5-2.3,2.14-3.52.11-.22.22-.44.33-.66,5.68-12.37,6.75-25.12,1.61-37.93-1.21,1.98-1.92,4.74-2.55,7.04-1.07,3.95-2.33,8.92-2.97,12.93-.06.37.18,1.02-.39.79-.45-.18.13-.74.13-.79.02-.7-.02-1.4,0-2.1l-.79.52c-.59-8.28-2.94-16.6-7.67-23.47-3.29-4.79-10.2-11.31-10.2-17.65v-4.07c.64.69.89,1.88,1.36,2.71,5.12,9.02,14.85,10.41,18.48,22.52.13.43-.05.93.65.78,2.15-8.76,8.44-18.45,17.86-20.37,3.93-.8,4.19.34,7.26.65,3.39.34,5.4-3.67,7.72-5.76.31-.89-.92-1.07-1.52-1.24ZM555.7,66.51c-.39-.69-1.53-3.09-1.53-3.72v-4.34c.87.77.91,2.13,1.43,3.16,5.01,9.82,17.29,10.22,26.41,6.42-6.88,6.7-21.13,7.6-26.31-1.53Z"/>
      <path class="cls-9" d="M558.65,40.07s-.24-1-.28-1.11c-.04-.11-.05-.22-.07-.33s-.05-.22-.08-.32c-.07-.25-.15-.5-.24-.74-.24-.6-.58-1.16-1-1.65s-.91-.89-1.45-1.22-1.18-.58-1.81-.73c-.45-.11-.92-.17-1.39-.2-1.12-.05-2.44.33-3.81.26-1.22-.06-2.93-.34-4.08-.78-1.68,1.32-3.48,3.84-2.63,6.04,1.82,4.69,12.7,5.53,16.81,4.2.13-.97.04-1.96.02-2.94,0-.16,0-.32,0-.48Z"/>
      <path class="cls-6" d="M573.61,45.85c-.9-.29-3.69-1.59-4.21-2.3-.67-.92-1.46-3.88-2.22-5.33-.46-.86-1.74-2.21-1.97-2.76-.14-.32.06-.5.39-.39,9.97,4.72,19.74,9.01,26.94,17.73.24.29.64.43.52.92-3.36-1.42-6.87-2.57-10.24-3.94-2.53-1.03-3.33-2.2-5.19-3.09-1.4-.67-2.85-.48-4.01-.85Z"/>
      <path class="cls-6" d="M604.08,65.55c-.72.07-.42,0-.52-.4-.22-.93-.08-3.14-1.24-3.49-.59-.18-1.06.08-1.8-.3-.85-.43-1.33-1.6-1.44-2.5-.06-.48-.22-2.26.37-2.22.21.01,3.84,1.38,4,1.52.18.15.63,1.29.63,1.47v5.91Z"/>
      <path class="cls-6" d="M582.8,49.79c-1.54.19-4.58.81-5.93.28-1.6-.62-2.21-3-3.26-4.22,1.16.37,2.61.18,4.01.85,1.86.89,2.65,2.06,5.19,3.09Z"/>
      <path class="cls-8" d="M606.67,57.19l-15.58-9.24c-1.94-3.12-3.93-5.98-6.96-8.14-1.91-1.36-4.06-2.17-6.14-3.2-.38-.19-7.05-3.11-9.88-3.63-3.58-.67-6.15-.61-9.72-.26l3.29,3.15c4.98,6.14,1.82,15.88,11.03,19.71,6.88,2.86,15.73,1.48,17.88,11.54.36,1.67-.62,3.03,1.97,2.53,3.79-.73,4.9-4.13,10.02-2.7.6.17,1.84.34,1.52,1.24.08-.08.52-.03.8-.37.58-.72,2.16-10.02,1.78-10.62ZM593.05,53.73c-3.36-1.42-6.87-2.57-10.24-3.94-1.54.19-4.58.81-5.93.28-1.6-.62-2.21-3-3.26-4.22-.9-.29-3.69-1.59-4.21-2.3-.67-.92-1.46-3.88-2.22-5.33-.46-.86-1.74-2.21-1.97-2.76-.14-.32.06-.5.39-.39,9.97,4.72,19.74,9.01,26.94,17.73.24.29.64.43.52.92ZM604.08,65.55c-.72.07-.42,0-.52-.4-.22-.93-.08-3.14-1.24-3.49-.59-.18-1.06.08-1.8-.3-.85-.43-1.33-1.6-1.44-2.5-.06-.48-.22-2.26.37-2.22.21.01,3.83,1.38,4,1.52.18.15.63,1.29.63,1.47v5.91Z"/>
    </g>
  </g>
</svg>