<?xml version="1.0" encoding="UTF-8"?>
<svg id="Layer_1" xmlns="http://www.w3.org/2000/svg" viewBox="0 0 852.7 168.95">
  <defs>
    <style>
      .cls-1, .cls-2, .cls-3, .cls-4 {
        stroke: #fff;
        stroke-linecap: round;
        stroke-linejoin: round;
        stroke-width: 6px;
      }

      .cls-1, .cls-5 {
        fill: #333f49;
      }

      .cls-6, .cls-4 {
        fill: #3a1e44;
      }

      .cls-7 {
        fill: #fff;
      }

      .cls-8, .cls-3 {
        fill: #b68dc9;
      }

      .cls-2, .cls-9 {
        fill: #714482;
      }
    </style>
  </defs>
  <g>
    <path class="cls-7" d="M195.83,162.02c-6.53,6.6-21.95,5.69-29.32.22-16.76-11.69-16.52-39.08-14.6-58.3,1.36-11.9,4.54-20.56,5.23-33.05.67-13.11.93-21.41-7.21-37.17-5.34-10.34-22.38-15.98-25.81.47-4.65,22.35-3.78,41.17-4.74,63.01-.34,15.67,1.92,35.62,11.82,47.83,2.85,3.68,7.02,6.37,9.49,10.07,5.95,9.06-7,12.14-13.65,11.73-21.45-1.51-29.15-7.33-50.9-.7-8.88,2.33-17.62-1.43-10.04-10.94,5.05-6.03,12.99-9.32,16.95-15.92,7.21-13.2,5.76-29.64,7-44.16.62-15.3-1.11-30.93-1.4-46.52-.43-7.89-2.64-21.11-10.84-24.01-6.42-2.27-12.67,1.6-16.12,6.02-2.35,3.01-8.46,9.7-8.12,26.64.37,18.11,8.2,35.29,6.74,62.58-.98,18.32-4.27,30.99-17.17,39.34-13.52,8.75-39.22,12.11-42.55-7.35-.66-5.28-2.12-13.56,4.63-16,5.87-2.12,6.15,4.42,7.96,9.7,1.63,4.75,5.55,6.18,10.83,3.41,29.1-15.22-20.06-68.63,4.27-111.33,5.49-9.64,10.24-13.25,19.3-19.41,5.31-3.61,11.08-5.91,17.17-8.35C98.24-3.62,141.09.49,167.35,21.25c27.6,23.37,25.01,47.75,21.52,75.98-1.22,9.86-13.57,40.43-11.92,49.7.37,9.18,24.7,8.73,19.01,14.95l-.13.14Z"/>
    <path class="cls-7" d="M292.37,84.84c-2.38,7.63-12.07,10.2-18.5,13.84-6.44,3.02-11.83,6.57-16.28,11.66-4.35,5.08-10.97,11.05-9.62,17.97,1.84,5.48,8.89,5.59,15.59,6.36,3.29.18,7.29.25,9.97-1.7,4.41-3.61.7-13.48,8.75-14.36,8.81.1,7.2,12.12,4.48,17.76-2.82,7.37-10.58,12.16-14.43,17.94-3.02,5.08-5.37,13.18-12.58,12.5-10.3-.37-22.4-10.09-33.12-14.18-4.32-1.91-11.31-3.13-11.04-9,.45-4.4,3.13-8.62,3.82-13.06,1.23-5.76.17-11.22.51-16.94.35-9,1.28-16.91.3-26.18-2.12-28.2-16.09-27.54,13.22-35.5,8.17-2.26,15.31-3.83,21.5-9.58,3.97-3.37,7.17-7.33,11.29-7.17,7.73-.35,20.84,33.27,24.51,40.6,1.18,2.74,2.25,6.1,1.67,8.79l-.05.23ZM261.26,81.18c-2.13-4-8.46-22.53-12.95-22.37-1.72.37-.41,7.43.12,10.97,1.04,7.48,1.57,15.63,1.37,23.43.03,1.96-.29,5.84,1.2,6.8,2,.86,4.97-1.76,7.84-4.22,4.58-3.65,4.84-8.93,2.53-14.3l-.12-.32Z"/>
    <path class="cls-7" d="M396.75,140.8c-2.66,4.49-8.87,7.01-10.65,12.42-2.12,4.74-.8,9.24-2.87,11.74-5.42,5.16-13.28-2.5-19.83-7.2-3.77-3.5-10.3-7.27-9.35-13.12.48-2.22,1.79-4.34,2.59-6.52,2.5-6.05.86-13.93.18-21.47-.45-4.66-.07-9.2.38-13.79.74-8.57-.18-20.09,2.3-29.52,1.34-5.41-3.27-8.45-7.46-10.46-3.41-1.71-7.91-4.31-9.81-4.81-2.86-1.1-3.56,1.74-3.47,4.71.03,5.63,1.22,12.06,1.62,17.63.68,13.87,2.02,28.83-.3,43.25-2.58,11.79,7.53,9.25,7.46,16.42-.99,5.22-6.73,8.51-8.81,13.29-2.09,5.45-2.17,15.07-9.82,13.21-6.12-1.37-12.06-9.12-18.33-13.22-1.32-.92-2.71-1.93-3.81-3.01-5-4.32.18-9.86,1.56-14.65,3.05-14.8,2.75-30.89,2.6-46.36-.52-6.18,1.09-13.73-2.68-18.97-1.85-2.17-5.37-3.27-7.24-5.44-3.25-3.82.74-8.47,3.31-11.52,2.12-2.48,3.49-5.39,4.2-8.44,1.27-6.68,3.59-9.82,10.8-9.02,4.22.4,8.25,2.03,11.69,4.41,4.39,2.98,10.78,9.31,15.57,3.65,1.52-1.84,2.26-3.83,3.47-5.75,5.34-8.37,17.28,2.7,23.52,5.35,5.21,3.29,13.44,2.79,17.03,8.19,1.21,2.28.68,5.23.07,7.78-5,20.62-7.84,47.56-1.7,69.32,1.4,3.27,5.03,5.62,7.02,8.04.98,1.22,1.3,2.44.84,3.67l-.07.18Z"/>
    <path class="cls-7" d="M468.32,47c-2.23,3.19-3.67,6.33-4.38,10-.52,2.12-.76,4.54-2.09,6.28-3.08,3.68-10.38-1.52-15.34-.59-9.21,2.39-3.75,19.72-3.79,26.79.57,7.32-.21,12.97-.13,19.42.46,5.93-.39,12.67-1.55,18.21-.66,8.52,11.93,7.21,17.6,9.83,7.37,2.5,2.58,8.76-.92,13.68-6.67,8.56-2.41,20.71-17.44,14.64-5.85-2.45-10.93-5.77-16.96-8.68-6-3.06-14.04-6.47-14.28-14.23-.17-3,.49-6.09,1.01-9.06,1.61-7.97,1.24-15.64,1.75-24.16,1.38-11.59,1.65-23.34,1.12-34.89.03-4.05-.31-8.7-3.83-11.13-2.23-1.7-5.28-2.17-7.02-3.62-2.02-1.65-2.24-5.52-1.64-8.18,1.17-6.96,10.99-6.63,12.18-13.47,1.66-7.35-4.58-11.98-4.64-17.94-.15-3.31,3.08-5.19,6.09-4.53,4.5.48,7.93,5.22,11.87,5.11,3.02-.77,4.13-4.85,5.8-7.39,4.11-7.15,10.5-12.31,17.04-10.56,3.48,1,5.67,4.49,4.42,8.16-1.3,4.03-5.12,7.14-7.36,10.72-2.96,4.39-3.99,5.04-4.44,10.77-1.27,9.01,3.51,14.63,12.37,10.56,4.37-2.06,6.68-6.94,10.62-9.46,3.01-2.21,7.51-1.26,7.93,2.91.46,3.75-1.68,7.4-3.84,10.56l-.17.25Z"/>
    <path class="cls-7" d="M556.98,139.12c-.53,1.43-2.04,2.43-3.48,3.13-8.05,4.29-27.84,5.67-30.3,15.64-1.01,5.79-1.02,10.34-8.48,8.55-10.35-2.5-19.21-10.25-28.56-14.34-3.19-1.61-7.63-2.68-9.73-5.59-1.05-1.68-.33-4.09.31-5.96,6.78-22.57,7.82-54.01,1.13-74.37-1.12-3.09-2.03-6.89,1.21-8.74,8.28-4.75,26.8-4.18,31.35-16.56,8-15.9,26.48,6.68,37.15,10.2,4.07,1.46,9.04,3.2,8.56,8.54-3.27,19.67-2.84,39.59-2.48,59.58.09,3.01-.06,6.02.42,8.95.48,4.01,3.61,7.11,2.97,10.8l-.06.18ZM526.23,127.53c-3.33-11.64,1.54-24.04-.23-35.74-.31-6.3-1.23-13.34-.41-20.15.18-1.69.36-3.89-.45-5.13-1.46-2.13-4.37-2.57-6.63-3.57-2.83-1.16-6.06-2.73-7.98-2.31-2.42.4-2.44,3.36-2.22,5.48,1.39,11.51.03,24.13,1.56,35.95.16,6.77-1.01,13.27-2.1,19.85-.54,3.28-2.85,7.28-.74,10.29,4.02,4.3,16.54,5.37,19.71,3.41,2.57-1.44.46-5.28-.41-7.81l-.1-.28Z"/>
    <path class="cls-7" d="M647.39,55.3c-1.8,3.89-5.57,7.74-7.76,11.88-2.14,3.62-3.34,8.07-5.76,11.41-6.12,7.15-11.64-9.26-17.09-10.91-7.2-2.61-6.23,9.05-5.76,13.47.68,7.46.76,13.95.67,21.12.04,4.95.63,9.94-.43,14.8-.39,4.44-4.83,11.5-.72,14.79,2.81,2.21,9.94,2.72,14.16,5.24,3.99,2.23,4.83,5.72,1.85,8.94-2.33,2.61-5.89,4.34-8.58,6.61-3.43,2.77-4.58,6.66-6.04,10.13-2.86,7.35-11.52,2.79-16.67.49-5.09-2.48-10.8-5.91-15.56-8.72-6.44-3.65-8.7-7.22-5.55-13.61,1.78-3.99,3.62-8.17,4.48-12.53,1.71-7.96-.18-16.68.32-24.99.62-10.3,3.11-22.88-2.53-30.62-1.66-2.45-3.96-4.63-5.51-7.07-3.46-4.87.41-10,2.53-14.55,2.98-6.39,4.02-14.17,9.29-15.68,6.24-1.54,12.16,2.71,17.06,6.3,7.22,5.78,13.03,11.16,19.03.94,1.68-2.38,3.59-4.65,6.52-5.14,3.68-.73,8.93,1.27,13.55,3.64,6.6,3.31,11.46,7.33,8.61,13.81l-.11.24Z"/>
  </g>
  <g>
    <g>
      <path class="cls-3" d="M807.65,127.43c.53,6.7-1.58,12.89-3.42,19.18l-1.05,1.84c-.09.17-.17.36-.26.53-.73,1.34-1.5,2.68-2.36,3.94-.5.72-1.12,1.34-1.84,1.84,4.23-7.62,4.98-19.17,3.59-27.63-1.29-7.92-5.09-16.39-10.16-22.55-.07.86,1.04,3.67.98,4.54-.09,1.44-1.99,1.61-2.03,2.55-1.77-2.15-3.25-4.51-5-6.69-5.01-6.24-10.98-11.5-14.4-18.96-.34-.74-.65-1.49-.94-2.25s-.54-1.52-.76-2.29-.41-1.53-.58-2.3c-.16-.77-.29-1.54-.39-2.31s-.17-1.54-.21-2.32-.05-1.54-.03-2.31.07-1.54.15-2.3.19-1.53.33-2.29.31-1.52.51-2.26c.2-.75.43-1.5.69-2.23s.55-1.48.86-2.2.67-1.45,1.04-2.15.79-1.42,1.22-2.1c.11-.18.23-.36.34-.54.11-.17.76-.72.89.04.22,1.26.27,4.89.26,5.17-.41,24.14,18.82,31.95,27.82,51.02,1.9,4.03,4.42,10.67,4.77,15.07Z"/>
      <path class="cls-3" d="M739.51,101.98c2.65,9.22,8.53,13.5,17.1,17.12.41.18.76-.13.55.62-11.34-2.19-25.97-8.45-24.29-22.42-3.44,2.35-6.79,4.99-10.44,7.02-2.98,1.66-6.2,2.73-9.23,4.23-4.82,2.39-9.42,5.19-13.51,8.7,1.02-3.59,3.02-6.86,4.91-10.04,10.88-9.61,22.9-17.45,37.04-21.39-2.82,4.61-4.03,8.81-2.86,14.23.16.73.56,1.32.73,1.92Z"/>
      <path class="cls-4" d="M798.72,154.75c-1.61,2.9-7.93,7.4-10.77,9.46,1.33-2.23,2.85-4.28,4.04-6.6,6.29-12.31,7.74-26.4,2.39-39.37-.47-1.13-3.6-6.4-3.57-6.94,0,0,1.64-.35,1.06-3.59s-3.51-7.61-3.43-8.47c7.61,7.83,12.59,19.97,13.88,27.88,1.38,8.47.63,20.01-3.59,27.63Z"/>
      <path class="cls-3" d="M787.42,33.11c-1.68,1.32-3.48,3.84-2.63,6.04.21,2.81,2.34,5.1,4.46,6.7-6.95.35-13.09-6.46-9.29-13.24.61-1.08,1.79-1.76,2.2-2.92,4.85-2.93,13.58-5.58,13.14-12.35,3.14-2.68,4.65-6.52,4.2-10.64-.12-1.12-1.63-3.72-.39-3.83,1.33-.12,3.48,3.03,4.02,4.14,3.48,7.1.04,15.05-5.61,19.78-3.11,2.61-7.09,3.96-10.11,6.31Z"/>
      <path class="cls-3" d="M812.38,112.19l-.79.52c-.59-8.28-2.94-16.6-7.67-23.47-3.29-4.79-10.2-11.31-10.2-17.65v-4.07c.64.69.89,1.88,1.36,2.71,5.12,9.02,14.85,10.41,18.48,22.52.13.43-.05.93.65.78-1.45,5.92-1.63,12.56-1.84,18.65Z"/>
      <path class="cls-2" d="M782.17,29.69c-.11.07-.57,0-.93.24-4.44,2.83-7.59,8.04-6.95,13.42-3.11-3.13-4.6-7.1-3.16-11.44,3.22-9.73,17.47-8.83,24.18-14.57.44,6.77-8.29,9.42-13.14,12.35Z"/>
      <path class="cls-3" d="M827.09,39.68c-1.91-1.36-4.06-2.17-6.14-3.2-.38-.19-2.22.03-2.09-.59,4.98.31,16.02-4.23,15.32-10.4,1.98-2.03,3.3-5.98,3.16-8.81-.04-.9-1.22-4.42-1.06-4.59.89-.88,3.74,2.63,4.15,3.33,4.88,8.16-.56,17.42-7.92,21.67-1.74,1.01-3.69,1.59-5.43,2.58Z"/>
      <path class="cls-4" d="M782.17,29.69c-.41,1.16-1.59,1.84-2.2,2.92-3.8,6.78,2.35,13.59,9.29,13.24-2.12-1.6-4.25-3.9-4.46-6.7,1.82,4.69,12.7,5.53,16.81,4.2-.12.9-1.11,3.63-1.98,3.93-1.23.42-5.42.63-6.83.55-4.66-.26-8.5-2.19-13.52-1.06-1.94-.96-3.47-1.88-4.99-3.42-.64-5.38,2.52-10.59,6.95-13.42.36-.23.82-.18.93-.24Z"/>
      <path class="cls-2" d="M834.19,25.49c.7,6.17-8.56,10.55-14.91,10.39-2.12-.05-5.38-2.51-8.21-3.03,6.19-1.82,13.9-1.66,19.62-4.95.73-.42,3-1.9,3.5-2.41Z"/>
      <path class="cls-3" d="M721.76,65.47c2.57,3.18,3.06,6.26,1.81,10.23l-1.33-3.82c-2.98-4.77-9.08-4.07-13.96-3.9,2.26-1.49,6.44-3.01,9.17-2.97,1.5.02,2.91.69,4.31.46Z"/>
      <path class="cls-3" d="M776.39,53.6c-.11-.7,1.54-1.07,2.05-1.24,5.01-1.6,6.47-.54,11.09.85.43.13.93-.05.78.65-5.19,1.97-8.7,2.37-13.92-.26Z"/>
      <path class="cls-1" d="M812.64,114.29c-.06.37.18,1.02-.39.79-.45-.18.13-.74.13-.79h.26Z"/>
      <path class="cls-4" d="M794.37,118.24c-.47-1.13-1.73-5.06-7.95-13.05-4.91-6.31-11.3-11.72-14.73-19.18-4.6-10-3.74-20.9,2.33-30.04-3.23,2.05-6.9,7.22-8.71,10.6-6.41,11.93-6.15,24.25,2,34.97.04.05-.07.21-.03.26l.47.58c6.48,8.13,11.16,13.77,13.24,24.41.74,3.81,1.11,7.42.91,11.31l-.71,4.03c-.82-9.99-7.15-18.97-14.36-25.53-4.58-4.17-9.34-6.9-12.91-12.26-3.61-5.43-4.86-13.11-2.82-19.33,0-.17.05-.35.06-.52,0-.28.02-.66.35-.76.01-.26.04-.53.08-.78.12-.63.54-.93.66-1.25.22-.59.47-1.19.72-1.77,0-.01-.07-.02.03-.26.21-.5.45-.82.66-1.25,0,0,.26.03.26.03.25-.38.5-.76.76-1.13.25-.36.55-.7.77-1.06-.13,0-.27.02-.39.04-.21.04-.36.18-.51.32-.32.31-.66.61-.99.9-.94.82-1.93,1.56-2.87,2.38-.82.71-1.61,1.44-2.38,2.2-1.5,1.48-2.9,3.07-4.13,4.79-1.2,1.69-2.23,3.5-3.01,5.42-.8,1.99-1.32,4.08-1.55,6.21-.12,1.16-.16,2.32-.12,3.48,2.65,9.22,8.53,13.5,17.1,17.12.41.18.76-.13.55.62-11.34-2.19-25.97-8.45-24.29-22.42-3.44,2.35-6.79,4.99-10.44,7.02-2.98,1.66-6.2,2.73-9.23,4.23-4.82,2.39-9.42,5.19-13.51,8.7,1.02-3.59,3.02-6.86,4.91-10.04,1.29-2.17,2.51-4.33,4.1-6.3,4.73-5.84,14.32-12.53,21.64-14.46l.03-.26c-10.29-.31-18.51,3.65-28.17,6.35-2.48.7-7.14,2.32-9.49,2.45-3.74.21-4.74-4.11-1.46-5.97,3.27-1.86,13.21-2.84,17.44-3.83,6.05-1.41,12.78-2.8,14.89-9.51l-1.33-3.82c-2.98-4.77-9.08-4.07-13.96-3.9,2.26-1.49,6.44-3.01,9.17-2.97,1.5.02,2.91.69,4.31.46-7.91-9.8-17.34,1.2-24.76-4.02-1.29-.91-2.74-3.42-2.98-3.44-.65-.07-1.7,5.76,2.66,12.3,3.01,4.52,10.43,7.57,15.47,4.7,1.6-.91,3.56-4.75,5.16-2.49,2,2.83-1.85,4.58-3.83,5.32-6.84,2.54-22.58,3.63-27.05,7.89-4.97,4.73-3.4,12.63,3.32,14.51,3.91,1.1,7.4-.41,11.21-.93-6.86,8.34-11.44,18.53-13.16,29.25-.19,1.18-1.1,8.99-.73,9.3.34.29.59-.2.78-.36,11.9-9.58,18.37-16.05,34.47-18.51,29.05-4.44,66.01,14.28,63.54,46.81.2.22,1.07-.6,1.31-.79.25-.19.41-.44.53-.53.1-.07.17-.2.26-.26,1.33-2.23,2.85-4.28,4.04-6.6,6.29-12.31,7.74-26.4,2.39-39.37ZM707.86,68.21l.03-.26.12.14-.14.12Z"/>
      <path class="cls-4" d="M751.11,84.99c-.18,17.76,15.71,22.16,24.99,34.38,1.9,2.5,2.95,5.06,4.53,7.57.52.83.26.09.36-.17.74,3.81,1.11,7.42.91,11.31l-.71,4.03c-.82-9.99-7.15-18.97-14.36-25.53-4.58-4.17-9.34-6.9-12.91-12.26-3.61-5.43-4.86-13.11-2.82-19.33Z"/>
      <path class="cls-3" d="M781.01,126.93c-1.46-9.42-6.56-16.46-12.6-24.06-.93-1.39-2.08-2.51-3.23-3.72-5.07-6.46-11.21-11.77-9.22-20.18.32-1.14,1.56-4.43-.1-3.28-1.13.75-2.9,3.15-3.23,3.99-.86,2.06-1.8,4.09-1.6,6.44.48,16.4,15.59,21.42,24.73,33.06,1.83,2.28,3.04,4.91,4.51,7.4.2.29.74,1.45.96,1.56.09.03-.22-1.2-.22-1.2Z"/>
      <path class="cls-3" d="M797.14,58.33c.87.77.91,2.13,1.43,3.16,5.01,9.82,17.29,10.22,26.41,6.42-6.88,6.7-21.13,7.6-26.31-1.53-.39-.69-1.53-3.09-1.53-3.72v-4.34Z"/>
      <path class="cls-4" d="M845.54,66.81c-5.12-1.43-6.24,1.97-10.02,2.7-2.59.5-1.61-.87-1.97-2.53-2.16-10.06-11-8.68-17.88-11.54-9.21-3.83-6.04-13.57-11.03-19.71l-3.29-3.15c-2.05.2-4.07.43-6.04,1.05,3.13.15,5.57,2.13,6.04,5.25.27.47.39,3.55.26,4.47-.12.9-1.11,3.63-1.98,3.93-1.23.42-5.42.63-6.83.55-4.66-.26-8.5-2.19-13.52-1.06-2.5.56-5.25,2.59-8.14,2.37,1.1,2.12,3.21,3.43,5.25,4.46-.11-.7,1.54-1.07,2.05-1.24,5.01-1.6,6.47-.54,11.09.85.43.13.93-.05.78.65,1.13-.43,2.48-.56,3.55-1.57-1.43,2.78-5.83,5.43-8.93,5.78-1.13.12-5.2-.46-5.39-.26-.21.22-.31,5.44-.27,6.19.96,19.44,18.24,28.14,25.19,44.43,2.59,6.07,3.51,12.42,3.19,19.01-.03.64.08,1.31.08,1.95s-.02,1.31-.06,1.97c-.08,1.3-.24,2.59-.46,3.86-.44,2.56-1.12,5.07-1.85,7.56-.27.94-.56,1.87-.86,2.8-.15.47-.31.9-.54,1.34-.32.62-.64,1.24-.97,1.87-.78,1.4-1.53,2.81-2.44,4.13.53-.1,1.04-.7,1.41-1.06.69-.67,1.32-1.41,1.98-2.12.37-.4.73-.82,1.09-1.23.98-1.15,1.92-2.33,2.84-3.52,1.1-1.41,2.17-2.84,3.22-4.28s2.03-2.83,2.99-4.28c.76-1.14,1.5-2.3,2.14-3.52.11-.22.22-.44.33-.66,5.68-12.37,6.75-25.12,1.61-37.93-1.21,1.98-1.92,4.74-2.55,7.04-1.07,3.95-2.33,8.92-2.97,12.93-.06.37.18,1.02-.39.79-.45-.18.13-.74.13-.79.02-.7-.02-1.4,0-2.1l-.79.52c-.59-8.28-2.94-16.6-7.67-23.47-3.29-4.79-10.2-11.31-10.2-17.65v-4.07c.64.69.89,1.88,1.36,2.71,5.12,9.02,14.85,10.41,18.48,22.52.13.43-.05.93.65.78,2.15-8.76,8.44-18.45,17.86-20.37,3.93-.8,4.19.34,7.26.65,3.39.34,5.4-3.67,7.72-5.76.31-.89-.92-1.07-1.52-1.24ZM798.68,66.39c-.39-.69-1.53-3.09-1.53-3.72v-4.34c.87.77.91,2.13,1.43,3.16,5.01,9.82,17.29,10.22,26.41,6.42-6.88,6.7-21.13,7.6-26.31-1.53Z"/>
      <path class="cls-2" d="M801.62,39.94s-.24-1-.28-1.11c-.04-.11-.05-.22-.07-.33s-.05-.22-.08-.32c-.07-.25-.15-.5-.24-.74-.24-.6-.58-1.16-1-1.65s-.91-.89-1.45-1.22-1.18-.58-1.81-.73c-.45-.11-.92-.17-1.39-.2-1.12-.05-2.44.33-3.81.26-1.22-.06-2.93-.34-4.08-.78-1.68,1.32-3.48,3.84-2.63,6.04,1.82,4.69,12.7,5.53,16.81,4.2.13-.97.04-1.96.02-2.94,0-.16,0-.32,0-.48Z"/>
      <path class="cls-4" d="M816.58,45.72c-.9-.29-3.69-1.59-4.21-2.3-.67-.92-1.46-3.88-2.22-5.33-.46-.86-1.74-2.21-1.97-2.76-.14-.32.06-.5.39-.39,9.97,4.72,19.74,9.01,26.94,17.73.24.29.64.43.52.92-3.36-1.42-6.87-2.57-10.24-3.94-2.53-1.03-3.33-2.2-5.19-3.09-1.4-.67-2.85-.48-4.01-.85Z"/>
      <path class="cls-4" d="M847.06,65.42c-.72.07-.42,0-.52-.4-.22-.93-.08-3.14-1.24-3.49-.59-.18-1.06.08-1.8-.3-.85-.43-1.33-1.6-1.44-2.5-.06-.48-.22-2.26.37-2.22.21.01,3.84,1.38,4,1.52.18.15.63,1.29.63,1.47v5.91Z"/>
      <path class="cls-4" d="M825.78,49.66c-1.54.19-4.58.81-5.93.28-1.6-.62-2.21-3-3.26-4.22,1.16.37,2.61.18,4.01.85,1.86.89,2.65,2.06,5.19,3.09Z"/>
      <path class="cls-3" d="M849.64,57.06l-15.58-9.24c-1.94-3.12-3.93-5.98-6.96-8.14-1.91-1.36-4.06-2.17-6.14-3.2-.38-.19-7.05-3.11-9.88-3.63-3.58-.67-6.15-.61-9.72-.26l3.29,3.15c4.98,6.14,1.82,15.88,11.03,19.71,6.88,2.86,15.73,1.48,17.88,11.54.36,1.67-.62,3.03,1.97,2.53,3.79-.73,4.9-4.13,10.02-2.7.6.17,1.84.34,1.52,1.24.08-.08.52-.03.8-.37.58-.72,2.16-10.02,1.78-10.62ZM836.02,53.6c-3.36-1.42-6.87-2.57-10.24-3.94-1.54.19-4.58.81-5.93.28-1.6-.62-2.21-3-3.26-4.22-.9-.29-3.69-1.59-4.21-2.3-.67-.92-1.46-3.88-2.22-5.33-.46-.86-1.74-2.21-1.97-2.76-.14-.32.06-.5.39-.39,9.97,4.72,19.74,9.01,26.94,17.73.24.29.64.43.52.92ZM847.06,65.42c-.72.07-.42,0-.52-.4-.22-.93-.08-3.14-1.24-3.49-.59-.18-1.06.08-1.8-.3-.85-.43-1.33-1.6-1.44-2.5-.06-.48-.22-2.26.37-2.22.21.01,3.83,1.38,4,1.52.18.15.63,1.29.63,1.47v5.91Z"/>
    </g>
    <g>
      <path class="cls-8" d="M807.65,127.43c.53,6.7-1.58,12.89-3.42,19.18l-1.05,1.84c-.09.17-.17.36-.26.53-.73,1.34-1.5,2.68-2.36,3.94-.5.72-1.12,1.34-1.84,1.84,4.23-7.62,4.98-19.17,3.59-27.63-1.29-7.92-5.09-16.39-10.16-22.55-.07.86,1.04,3.67.98,4.54-.09,1.44-1.99,1.61-2.03,2.55-1.77-2.15-3.25-4.51-5-6.69-5.01-6.24-10.98-11.5-14.4-18.96-.34-.74-.65-1.49-.94-2.25s-.54-1.52-.76-2.29-.41-1.53-.58-2.3c-.16-.77-.29-1.54-.39-2.31s-.17-1.54-.21-2.32-.05-1.54-.03-2.31.07-1.54.15-2.3.19-1.53.33-2.29.31-1.52.51-2.26c.2-.75.43-1.5.69-2.23s.55-1.48.86-2.2.67-1.45,1.04-2.15.79-1.42,1.22-2.1c.11-.18.23-.36.34-.54.11-.17.76-.72.89.04.22,1.26.27,4.89.26,5.17-.41,24.14,18.82,31.95,27.82,51.02,1.9,4.03,4.42,10.67,4.77,15.07Z"/>
      <path class="cls-8" d="M739.51,101.98c2.65,9.22,8.53,13.5,17.1,17.12.41.18.76-.13.55.62-11.34-2.19-25.97-8.45-24.29-22.42-3.44,2.35-6.79,4.99-10.44,7.02-2.98,1.66-6.2,2.73-9.23,4.23-4.82,2.39-9.42,5.19-13.51,8.7,1.02-3.59,3.02-6.86,4.91-10.04,10.88-9.61,22.9-17.45,37.04-21.39-2.82,4.61-4.03,8.81-2.86,14.23.16.73.56,1.32.73,1.92Z"/>
      <path class="cls-6" d="M798.72,154.75c-1.61,2.9-7.93,7.4-10.77,9.46,1.33-2.23,2.85-4.28,4.04-6.6,6.29-12.31,7.74-26.4,2.39-39.37-.47-1.13-3.6-6.4-3.57-6.94,0,0,1.64-.35,1.06-3.59s-3.51-7.61-3.43-8.47c7.61,7.83,12.59,19.97,13.88,27.88,1.38,8.47.63,20.01-3.59,27.63Z"/>
      <path class="cls-8" d="M787.42,33.11c-1.68,1.32-3.48,3.84-2.63,6.04.21,2.81,2.34,5.1,4.46,6.7-6.95.35-13.09-6.46-9.29-13.24.61-1.08,1.79-1.76,2.2-2.92,4.85-2.93,13.58-5.58,13.14-12.35,3.14-2.68,4.65-6.52,4.2-10.64-.12-1.12-1.63-3.72-.39-3.83,1.33-.12,3.48,3.03,4.02,4.14,3.48,7.1.04,15.05-5.61,19.78-3.11,2.61-7.09,3.96-10.11,6.31Z"/>
      <path class="cls-8" d="M812.38,112.19l-.79.52c-.59-8.28-2.94-16.6-7.67-23.47-3.29-4.79-10.2-11.31-10.2-17.65v-4.07c.64.69.89,1.88,1.36,2.71,5.12,9.02,14.85,10.41,18.48,22.52.13.43-.05.93.65.78-1.45,5.92-1.63,12.56-1.84,18.65Z"/>
      <path class="cls-9" d="M782.17,29.69c-.11.07-.57,0-.93.24-4.44,2.83-7.59,8.04-6.95,13.42-3.11-3.13-4.6-7.1-3.16-11.44,3.22-9.73,17.47-8.83,24.18-14.57.44,6.77-8.29,9.42-13.14,12.35Z"/>
      <path class="cls-8" d="M827.09,39.68c-1.91-1.36-4.06-2.17-6.14-3.2-.38-.19-2.22.03-2.09-.59,4.98.31,16.02-4.23,15.32-10.4,1.98-2.03,3.3-5.98,3.16-8.81-.04-.9-1.22-4.42-1.06-4.59.89-.88,3.74,2.63,4.15,3.33,4.88,8.16-.56,17.42-7.92,21.67-1.74,1.01-3.69,1.59-5.43,2.58Z"/>
      <path class="cls-6" d="M782.17,29.69c-.41,1.16-1.59,1.84-2.2,2.92-3.8,6.78,2.35,13.59,9.29,13.24-2.12-1.6-4.25-3.9-4.46-6.7,1.82,4.69,12.7,5.53,16.81,4.2-.12.9-1.11,3.63-1.98,3.93-1.23.42-5.42.63-6.83.55-4.66-.26-8.5-2.19-13.52-1.06-1.94-.96-3.47-1.88-4.99-3.42-.64-5.38,2.52-10.59,6.95-13.42.36-.23.82-.18.93-.24Z"/>
      <path class="cls-9" d="M834.19,25.49c.7,6.17-8.56,10.55-14.91,10.39-2.12-.05-5.38-2.51-8.21-3.03,6.19-1.82,13.9-1.66,19.62-4.95.73-.42,3-1.9,3.5-2.41Z"/>
      <path class="cls-8" d="M721.76,65.47c2.57,3.18,3.06,6.26,1.81,10.23l-1.33-3.82c-2.98-4.77-9.08-4.07-13.96-3.9,2.26-1.49,6.44-3.01,9.17-2.97,1.5.02,2.91.69,4.31.46Z"/>
      <path class="cls-8" d="M776.39,53.6c-.11-.7,1.54-1.07,2.05-1.24,5.01-1.6,6.47-.54,11.09.85.43.13.93-.05.78.65-5.19,1.97-8.7,2.37-13.92-.26Z"/>
      <path class="cls-5" d="M812.64,114.29c-.06.37.18,1.02-.39.79-.45-.18.13-.74.13-.79h.26Z"/>
      <path class="cls-6" d="M794.37,118.24c-.47-1.13-1.73-5.06-7.95-13.05-4.91-6.31-11.3-11.72-14.73-19.18-4.6-10-3.74-20.9,2.33-30.04-3.23,2.05-6.9,7.22-8.71,10.6-6.41,11.93-6.15,24.25,2,34.97.04.05-.07.21-.03.26l.47.58c6.48,8.13,11.16,13.77,13.24,24.41.74,3.81,1.11,7.42.91,11.31l-.71,4.03c-.82-9.99-7.15-18.97-14.36-25.53-4.58-4.17-9.34-6.9-12.91-12.26-3.61-5.43-4.86-13.11-2.82-19.33,0-.17.05-.35.06-.52,0-.28.02-.66.35-.76.01-.26.04-.53.08-.78.12-.63.54-.93.66-1.25.22-.59.47-1.19.72-1.77,0-.01-.07-.02.03-.26.21-.5.45-.82.66-1.25,0,0,.26.03.26.03.25-.38.5-.76.76-1.13.25-.36.55-.7.77-1.06-.13,0-.27.02-.39.04-.21.04-.36.18-.51.32-.32.31-.66.61-.99.9-.94.82-1.93,1.56-2.87,2.38-.82.71-1.61,1.44-2.38,2.2-1.5,1.48-2.9,3.07-4.13,4.79-1.2,1.69-2.23,3.5-3.01,5.42-.8,1.99-1.32,4.08-1.55,6.21-.12,1.16-.16,2.32-.12,3.48,2.65,9.22,8.53,13.5,17.1,17.12.41.18.76-.13.55.62-11.34-2.19-25.97-8.45-24.29-22.42-3.44,2.35-6.79,4.99-10.44,7.02-2.98,1.66-6.2,2.73-9.23,4.23-4.82,2.39-9.42,5.19-13.51,8.7,1.02-3.59,3.02-6.86,4.91-10.04,1.29-2.17,2.51-4.33,4.1-6.3,4.73-5.84,14.32-12.53,21.64-14.46l.03-.26c-10.29-.31-18.51,3.65-28.17,6.35-2.48.7-7.14,2.32-9.49,2.45-3.74.21-4.74-4.11-1.46-5.97,3.27-1.86,13.21-2.84,17.44-3.83,6.05-1.41,12.78-2.8,14.89-9.51l-1.33-3.82c-2.98-4.77-9.08-4.07-13.96-3.9,2.26-1.49,6.44-3.01,9.17-2.97,1.5.02,2.91.69,4.31.46-7.91-9.8-17.34,1.2-24.76-4.02-1.29-.91-2.74-3.42-2.98-3.44-.65-.07-1.7,5.76,2.66,12.3,3.01,4.52,10.43,7.57,15.47,4.7,1.6-.91,3.56-4.75,5.16-2.49,2,2.83-1.85,4.58-3.83,5.32-6.84,2.54-22.58,3.63-27.05,7.89-4.97,4.73-3.4,12.63,3.32,14.51,3.91,1.1,7.4-.41,11.21-.93-6.86,8.34-11.44,18.53-13.16,29.25-.19,1.18-1.1,8.99-.73,9.3.34.29.59-.2.78-.36,11.9-9.58,18.37-16.05,34.47-18.51,29.05-4.44,66.01,14.28,63.54,46.81.2.22,1.07-.6,1.31-.79.25-.19.41-.44.53-.53.1-.07.17-.2.26-.26,1.33-2.23,2.85-4.28,4.04-6.6,6.29-12.31,7.74-26.4,2.39-39.37ZM707.86,68.21l.03-.26.12.14-.14.12Z"/>
      <path class="cls-6" d="M751.11,84.99c-.18,17.76,15.71,22.16,24.99,34.38,1.9,2.5,2.95,5.06,4.53,7.57.52.83.26.09.36-.17.74,3.81,1.11,7.42.91,11.31l-.71,4.03c-.82-9.99-7.15-18.97-14.36-25.53-4.58-4.17-9.34-6.9-12.91-12.26-3.61-5.43-4.86-13.11-2.82-19.33Z"/>
      <path class="cls-8" d="M781.01,126.93c-1.46-9.42-6.56-16.46-12.6-24.06-.93-1.39-2.08-2.51-3.23-3.72-5.07-6.46-11.21-11.77-9.22-20.18.32-1.14,1.56-4.43-.1-3.28-1.13.75-2.9,3.15-3.23,3.99-.86,2.06-1.8,4.09-1.6,6.44.48,16.4,15.59,21.42,24.73,33.06,1.83,2.28,3.04,4.91,4.51,7.4.2.29.74,1.45.96,1.56.09.03-.22-1.2-.22-1.2Z"/>
      <path class="cls-8" d="M797.14,58.33c.87.77.91,2.13,1.43,3.16,5.01,9.82,17.29,10.22,26.41,6.42-6.88,6.7-21.13,7.6-26.31-1.53-.39-.69-1.53-3.09-1.53-3.72v-4.34Z"/>
      <path class="cls-6" d="M845.54,66.81c-5.12-1.43-6.24,1.97-10.02,2.7-2.59.5-1.61-.87-1.97-2.53-2.16-10.06-11-8.68-17.88-11.54-9.21-3.83-6.04-13.57-11.03-19.71l-3.29-3.15c-2.05.2-4.07.43-6.04,1.05,3.13.15,5.57,2.13,6.04,5.25.27.47.39,3.55.26,4.47-.12.9-1.11,3.63-1.98,3.93-1.23.42-5.42.63-6.83.55-4.66-.26-8.5-2.19-13.52-1.06-2.5.56-5.25,2.59-8.14,2.37,1.1,2.12,3.21,3.43,5.25,4.46-.11-.7,1.54-1.07,2.05-1.24,5.01-1.6,6.47-.54,11.09.85.43.13.93-.05.78.65,1.13-.43,2.48-.56,3.55-1.57-1.43,2.78-5.83,5.43-8.93,5.78-1.13.12-5.2-.46-5.39-.26-.21.22-.31,5.44-.27,6.19.96,19.44,18.24,28.14,25.19,44.43,2.59,6.07,3.51,12.42,3.19,19.01-.03.64.08,1.31.08,1.95s-.02,1.31-.06,1.97c-.08,1.3-.24,2.59-.46,3.86-.44,2.56-1.12,5.07-1.85,7.56-.27.94-.56,1.87-.86,2.8-.15.47-.31.9-.54,1.34-.32.62-.64,1.24-.97,1.87-.78,1.4-1.53,2.81-2.44,4.13.53-.1,1.04-.7,1.41-1.06.69-.67,1.32-1.41,1.98-2.12.37-.4.73-.82,1.09-1.23.98-1.15,1.92-2.33,2.84-3.52,1.1-1.41,2.17-2.84,3.22-4.28s2.03-2.83,2.99-4.28c.76-1.14,1.5-2.3,2.14-3.52.11-.22.22-.44.33-.66,5.68-12.37,6.75-25.12,1.61-37.93-1.21,1.98-1.92,4.74-2.55,7.04-1.07,3.95-2.33,8.92-2.97,12.93-.06.37.18,1.02-.39.79-.45-.18.13-.74.13-.79.02-.7-.02-1.4,0-2.1l-.79.52c-.59-8.28-2.94-16.6-7.67-23.47-3.29-4.79-10.2-11.31-10.2-17.65v-4.07c.64.69.89,1.88,1.36,2.71,5.12,9.02,14.85,10.41,18.48,22.52.13.43-.05.93.65.78,2.15-8.76,8.44-18.45,17.86-20.37,3.93-.8,4.19.34,7.26.65,3.39.34,5.4-3.67,7.72-5.76.31-.89-.92-1.07-1.52-1.24ZM798.68,66.39c-.39-.69-1.53-3.09-1.53-3.72v-4.34c.87.77.91,2.13,1.43,3.16,5.01,9.82,17.29,10.22,26.41,6.42-6.88,6.7-21.13,7.6-26.31-1.53Z"/>
      <path class="cls-9" d="M801.62,39.94s-.24-1-.28-1.11c-.04-.11-.05-.22-.07-.33s-.05-.22-.08-.32c-.07-.25-.15-.5-.24-.74-.24-.6-.58-1.16-1-1.65s-.91-.89-1.45-1.22-1.18-.58-1.81-.73c-.45-.11-.92-.17-1.39-.2-1.12-.05-2.44.33-3.81.26-1.22-.06-2.93-.34-4.08-.78-1.68,1.32-3.48,3.84-2.63,6.04,1.82,4.69,12.7,5.53,16.81,4.2.13-.97.04-1.96.02-2.94,0-.16,0-.32,0-.48Z"/>
      <path class="cls-6" d="M816.58,45.72c-.9-.29-3.69-1.59-4.21-2.3-.67-.92-1.46-3.88-2.22-5.33-.46-.86-1.74-2.21-1.97-2.76-.14-.32.06-.5.39-.39,9.97,4.72,19.74,9.01,26.94,17.73.24.29.64.43.52.92-3.36-1.42-6.87-2.57-10.24-3.94-2.53-1.03-3.33-2.2-5.19-3.09-1.4-.67-2.85-.48-4.01-.85Z"/>
      <path class="cls-6" d="M847.06,65.42c-.72.07-.42,0-.52-.4-.22-.93-.08-3.14-1.24-3.49-.59-.18-1.06.08-1.8-.3-.85-.43-1.33-1.6-1.44-2.5-.06-.48-.22-2.26.37-2.22.21.01,3.84,1.38,4,1.52.18.15.63,1.29.63,1.47v5.91Z"/>
      <path class="cls-6" d="M825.78,49.66c-1.54.19-4.58.81-5.93.28-1.6-.62-2.21-3-3.26-4.22,1.16.37,2.61.18,4.01.85,1.86.89,2.65,2.06,5.19,3.09Z"/>
      <path class="cls-8" d="M849.64,57.06l-15.58-9.24c-1.94-3.12-3.93-5.98-6.96-8.14-1.91-1.36-4.06-2.17-6.14-3.2-.38-.19-7.05-3.11-9.88-3.63-3.58-.67-6.15-.61-9.72-.26l3.29,3.15c4.98,6.14,1.82,15.88,11.03,19.71,6.88,2.86,15.73,1.48,17.88,11.54.36,1.67-.62,3.03,1.97,2.53,3.79-.73,4.9-4.13,10.02-2.7.6.17,1.84.34,1.52,1.24.08-.08.52-.03.8-.37.58-.72,2.16-10.02,1.78-10.62ZM836.02,53.6c-3.36-1.42-6.87-2.57-10.24-3.94-1.54.19-4.58.81-5.93.28-1.6-.62-2.21-3-3.26-4.22-.9-.29-3.69-1.59-4.21-2.3-.67-.92-1.46-3.88-2.22-5.33-.46-.86-1.74-2.21-1.97-2.76-.14-.32.06-.5.39-.39,9.97,4.72,19.74,9.01,26.94,17.73.24.29.64.43.52.92ZM847.06,65.42c-.72.07-.42,0-.52-.4-.22-.93-.08-3.14-1.24-3.49-.59-.18-1.06.08-1.8-.3-.85-.43-1.33-1.6-1.44-2.5-.06-.48-.22-2.26.37-2.22.21.01,3.83,1.38,4,1.52.18.15.63,1.29.63,1.47v5.91Z"/>
    </g>
  </g>
</svg>